<svg width="1118" height="602" viewBox="0 0 1118 602" fill="none" xmlns="http://www.w3.org/2000/svg">
<mask id="mask0_1501_16251" style="mask-type:luminance" maskUnits="userSpaceOnUse" x="0" y="0" width="1118" height="602">
<path d="M1118 0H0V602H1118V0Z" fill="white"/>
</mask>
<g mask="url(#mask0_1501_16251)">
<path fill-rule="evenodd" clip-rule="evenodd" d="M1107.83 1.32992C1110.65 1.05727 1114.18 4.44638 1116.13 8.54894C1117.61 11.7012 1117.89 15.2755 1117.79 17.9342V364.096C1117.63 368.472 1115.21 372.546 1111.91 375.09C1108.59 377.565 1103.96 379.084 1099.76 379.134H715.074C704.422 379.047 695.161 383.256 688.16 390.209C681.16 397.162 676.922 406.366 677.011 416.946V584.119C676.96 588.293 675.43 592.89 672.939 596.178C670.378 599.456 666.258 601.877 661.852 602.023H17.8317C13.0061 601.938 8.27181 599.888 5.09118 596.778C1.95962 593.619 -0.104032 588.908 -0.190186 584.112V233.971C-0.0419221 229.595 2.3964 225.521 5.69524 222.976C9.00511 220.502 13.6403 218.983 17.8418 218.932H725.099C735.751 219.02 745.013 214.811 752.013 207.858C759.014 200.905 763.251 191.701 763.163 181.121V17.9282C763.214 13.7541 764.743 9.15695 767.234 5.86833C769.796 2.59166 773.916 0.170703 778.321 0.0234375L1107.83 1.32992Z" fill="black"/>
</g>
</svg>
