<svg width="24" height="24" viewBox="0 0 24 24" fill="none" xmlns="http://www.w3.org/2000/svg">
<g id="icon/calender">
<g id="Vector">
<path d="M7.98692 2.99922C7.84285 2.99922 7.70468 3.05645 7.60281 3.15832C7.50093 3.2602 7.4437 3.39836 7.4437 3.54243V5.0982H5.49899C4.83644 5.09878 4.2012 5.36223 3.73271 5.83072C3.26422 6.29921 3.00077 6.93445 3.0002 7.597V18.5004C3.00077 19.163 3.26422 19.7982 3.73271 20.2667C4.2012 20.7352 4.83644 20.9986 5.49899 20.9992H18.484C19.1466 20.9986 19.7818 20.7352 20.2503 20.2667C20.7188 19.7982 20.9822 19.163 20.9828 18.5004V7.597C20.9822 6.93445 20.7188 6.29921 20.2503 5.83072C19.7818 5.36223 19.1466 5.09878 18.484 5.0982H16.5393V3.54243C16.5393 3.39836 16.4821 3.2602 16.3802 3.15832C16.2783 3.05645 16.1402 2.99922 15.9961 2.99922C15.852 2.99922 15.7139 3.05645 15.612 3.15832C15.5101 3.2602 15.4529 3.39836 15.4529 3.54243V5.0982H12.5347V3.54243C12.5347 3.39836 12.4775 3.2602 12.3756 3.15832C12.2737 3.05645 12.1356 2.99922 11.9915 2.99922C11.8474 2.99922 11.7093 3.05645 11.6074 3.15832C11.5055 3.2602 11.4483 3.39836 11.4483 3.54243V5.0982H8.53013V3.54243C8.53013 3.39836 8.4729 3.2602 8.37103 3.15832C8.26916 3.05645 8.13099 2.99922 7.98692 2.99922ZM18.484 19.9128H5.49899C5.12441 19.9128 4.76517 19.764 4.5003 19.4991C4.23543 19.2342 4.08663 18.875 4.08663 18.5004V10.6064H19.8964V18.5004C19.8964 18.875 19.7476 19.2342 19.4827 19.4991C19.2178 19.764 18.8586 19.9128 18.484 19.9128ZM11.4483 6.18464V7.05378C11.262 7.1715 11.119 7.34656 11.0408 7.5526C10.9626 7.75864 10.9534 7.98451 11.0147 8.19619C11.076 8.40788 11.2044 8.59393 11.3805 8.72634C11.5567 8.85874 11.7711 8.93034 11.9915 8.93034C12.2119 8.93034 12.4263 8.85874 12.6025 8.72634C12.7786 8.59393 12.907 8.40788 12.9683 8.19619C13.0296 7.98451 13.0204 7.75864 12.9422 7.5526C12.864 7.34656 12.721 7.1715 12.5347 7.05378V6.18464H15.4529V7.05378C15.2659 7.17157 15.1223 7.34693 15.0437 7.55344C14.9651 7.75995 14.9557 7.98641 15.017 8.19871C15.0783 8.411 15.207 8.59762 15.3836 8.73044C15.5601 8.86326 15.7751 8.93508 15.9961 8.93508C16.2171 8.93508 16.432 8.86326 16.6086 8.73044C16.7852 8.59762 16.9139 8.411 16.9752 8.19871C17.0365 7.98641 17.0271 7.75995 16.9485 7.55344C16.8699 7.34693 16.7263 7.17157 16.5393 7.05378V6.18464H18.484C18.8584 6.18521 19.2173 6.3342 19.4821 6.59894C19.7468 6.86369 19.8958 7.22259 19.8964 7.597V9.51998H4.08663V7.597C4.0872 7.22259 4.23619 6.86369 4.50093 6.59894C4.76568 6.3342 5.12458 6.18521 5.49899 6.18464H7.45457V7.05378C7.26826 7.1715 7.12525 7.34656 7.04705 7.5526C6.96885 7.75864 6.95971 7.98451 7.02098 8.19619C7.08226 8.40788 7.21065 8.59393 7.38682 8.72634C7.56299 8.85874 7.7774 8.93034 7.99778 8.93034C8.21816 8.93034 8.43257 8.85874 8.60874 8.72634C8.78491 8.59393 8.9133 8.40788 8.97458 8.19619C9.03586 7.98451 9.02671 7.75864 8.94851 7.5526C8.87031 7.34656 8.7273 7.1715 8.541 7.05378V6.18464H11.4483Z" fill="#94A3B8"/>
<path fill-rule="evenodd" clip-rule="evenodd" d="M7.39067 2.94619C7.54881 2.78806 7.76328 2.69922 7.98692 2.69922C8.21055 2.69922 8.42503 2.78806 8.58316 2.94619C8.74129 3.10432 8.83013 3.3188 8.83013 3.54243V4.7982H11.1483V3.54243C11.1483 3.3188 11.2371 3.10433 11.3953 2.94619C11.5534 2.78806 11.7679 2.69922 11.9915 2.69922C12.2151 2.69922 12.4296 2.78806 12.5877 2.94619C12.7459 3.10433 12.8347 3.3188 12.8347 3.54243V4.7982H15.1529V3.54243C15.1529 3.3188 15.2417 3.10433 15.3998 2.94619C15.558 2.78806 15.7725 2.69922 15.9961 2.69922C16.2197 2.69922 16.4342 2.78806 16.5923 2.94619C16.7505 3.10433 16.8393 3.3188 16.8393 3.54243V4.7982H18.484C19.226 4.79885 19.9377 5.0939 20.4624 5.61859C20.9871 6.14328 21.2822 6.85472 21.2828 7.59674V18.5004C21.2822 19.2424 20.9871 19.9541 20.4624 20.4788C19.9377 21.0035 19.2263 21.2986 18.4843 21.2992H5.49899C4.75697 21.2986 4.04527 21.0035 3.52058 20.4788C2.99589 19.9541 2.70084 19.2427 2.7002 18.5007L2.7002 7.597C2.70084 6.85498 2.99589 6.14327 3.52058 5.61859C4.04527 5.0939 4.75671 4.79885 5.49873 4.7982H7.1437V3.54243C7.1437 3.3188 7.23254 3.10433 7.39067 2.94619ZM7.98692 3.29922C7.92241 3.29922 7.86055 3.32484 7.81494 3.37046C7.76933 3.41607 7.7437 3.47793 7.7437 3.54243V5.3982H5.49925C4.91618 5.39871 4.35714 5.63056 3.94484 6.04285C3.53258 6.45511 3.30074 7.0141 3.3002 7.59713V18.5003C3.30074 19.0833 3.53258 19.6423 3.94484 20.0546C4.35713 20.4669 4.91618 20.6987 5.49925 20.6992H18.4838C19.0668 20.6987 19.6259 20.4669 20.0382 20.0546C20.4505 19.6423 20.6823 19.0832 20.6828 18.5002V7.59726C20.6823 7.01419 20.4505 6.45514 20.0382 6.04285C19.6259 5.63056 19.0668 5.39871 18.4838 5.3982H16.2393V3.54243C16.2393 3.47793 16.2137 3.41607 16.1681 3.37046C16.1225 3.32484 16.0606 3.29922 15.9961 3.29922C15.9316 3.29922 15.8697 3.32484 15.8241 3.37046C15.7785 3.41607 15.7529 3.47793 15.7529 3.54243V5.3982H12.2347V3.54243C12.2347 3.47793 12.2091 3.41607 12.1635 3.37046C12.1179 3.32484 12.056 3.29922 11.9915 3.29922C11.927 3.29922 11.8651 3.32484 11.8195 3.37046C11.7739 3.41607 11.7483 3.47793 11.7483 3.54243V5.3982H8.23013V3.54243C8.23013 3.47793 8.20451 3.41607 8.1589 3.37046C8.11328 3.32484 8.05142 3.29922 7.98692 3.29922ZM5.49899 5.88464L7.75457 5.88464V7.21909L7.61482 7.30739C7.48348 7.39039 7.38266 7.5138 7.32753 7.65905C7.2724 7.80431 7.26595 7.96354 7.30915 8.11278C7.35235 8.26201 7.44287 8.39318 7.56706 8.48652C7.69126 8.57986 7.84242 8.63033 7.99778 8.63033C8.15315 8.63033 8.3043 8.57986 8.4285 8.48652C8.5527 8.39318 8.64321 8.26201 8.68641 8.11278C8.72961 7.96354 8.72316 7.80431 8.66803 7.65905C8.6129 7.5138 8.51208 7.39039 8.38074 7.30739L8.241 7.21909V5.88464H11.7483V7.21909L11.6085 7.30739C11.4772 7.39039 11.3764 7.5138 11.3213 7.65905C11.2661 7.80431 11.2597 7.96354 11.3029 8.11278C11.3461 8.26201 11.4366 8.39318 11.5608 8.48652C11.685 8.57986 11.8361 8.63033 11.9915 8.63033C12.1469 8.63033 12.298 8.57986 12.4222 8.48652C12.5464 8.39318 12.6369 8.26201 12.6801 8.11278C12.7233 7.96354 12.7169 7.80431 12.6618 7.65905C12.6066 7.5138 12.5058 7.39039 12.3745 7.30739L12.2347 7.21909V5.88464H15.7529V7.21935L15.6128 7.30761C15.4809 7.39072 15.3795 7.51446 15.3241 7.66017C15.2686 7.80589 15.262 7.96569 15.3052 8.11548C15.3485 8.26528 15.4393 8.39696 15.5639 8.49068C15.6885 8.5844 15.8402 8.63508 15.9961 8.63508C16.152 8.63508 16.3037 8.5844 16.4283 8.49068C16.5529 8.39696 16.6437 8.26528 16.6869 8.11548C16.7302 7.96569 16.7236 7.80589 16.6681 7.66017C16.6126 7.51446 16.5113 7.39072 16.3794 7.30761L16.2393 7.21935V5.88464H18.484C18.9378 5.88533 19.3733 6.06592 19.6942 6.38681C20.0151 6.7077 20.1957 7.14273 20.1964 7.59654L20.1964 9.81998H3.78663V7.597C3.78732 7.14319 3.96791 6.7077 4.2888 6.38681C4.60969 6.06592 5.04518 5.88533 5.49899 5.88464ZM7.15457 6.48464L5.49945 6.48464C5.2045 6.48513 4.92163 6.60251 4.71306 6.81107C4.5045 7.01964 4.38712 7.30236 4.38663 7.59731V9.21998H7.83297C7.60658 9.19143 7.39049 9.10438 7.20658 8.96616C6.97844 8.79469 6.81217 8.55375 6.73281 8.27961C6.65346 8.00547 6.66531 7.71297 6.76657 7.44615C6.84729 7.23349 6.98132 7.04631 7.15457 6.90189V6.48464ZM8.1626 9.21998H11.8267C11.6003 9.19143 11.3842 9.10438 11.2003 8.96616C10.9722 8.79469 10.8059 8.55375 10.7265 8.27961C10.6472 8.00547 10.659 7.71297 10.7603 7.44615C10.841 7.23349 10.975 7.04631 11.1483 6.90189V6.48464H8.841V6.90189C9.01424 7.0463 9.14828 7.23349 9.22899 7.44615C9.33026 7.71297 9.3421 8.00547 9.26275 8.27961C9.18339 8.55375 9.01713 8.79469 8.78899 8.96616C8.60507 9.10438 8.38898 9.19143 8.1626 9.21998ZM12.1563 9.21998H15.7971C15.5826 9.18724 15.3783 9.10188 15.2032 8.9702C14.9746 8.79828 14.8081 8.55672 14.7288 8.28193C14.6494 8.00714 14.6616 7.71401 14.7633 7.4467C14.8444 7.23362 14.979 7.04615 15.1529 6.90163V6.48464H12.8347V6.90189C13.008 7.04631 13.142 7.23349 13.2227 7.44615C13.324 7.71297 13.3358 8.00547 13.2565 8.27961C13.1771 8.55375 13.0109 8.79469 12.7827 8.96616C12.5988 9.10438 12.3827 9.19143 12.1563 9.21998ZM16.1951 9.21998H19.5964V7.59746C19.5959 7.30246 19.4785 7.01967 19.2699 6.81107C19.0614 6.60251 18.7787 6.48513 18.4837 6.48464H16.8393V6.90163C17.0132 7.04615 17.1477 7.23362 17.2289 7.4467C17.3306 7.71401 17.3427 8.00714 17.2634 8.28193C17.184 8.55672 17.0175 8.79828 16.789 8.9702C16.6139 9.10188 16.4096 9.18724 16.1951 9.21998ZM3.78663 10.3064H20.1964V18.5004C20.1964 18.9546 20.016 19.3901 19.6948 19.7112C19.3737 20.0324 18.9382 20.2128 18.484 20.2128H5.49899C5.04484 20.2128 4.6093 20.0324 4.28817 19.7112C3.96704 19.3901 3.78663 18.9546 3.78663 18.5004V10.3064ZM4.38663 10.9064V18.5004C4.38663 18.7954 4.50382 19.0784 4.71243 19.287C4.92104 19.4956 5.20397 19.6128 5.49899 19.6128H18.484C18.779 19.6128 19.062 19.4956 19.2706 19.287C19.4792 19.0784 19.5964 18.7954 19.5964 18.5004V10.9064H4.38663Z" fill="#94A3B8"/>
</g>
</g>
</svg>
