<svg width="20" height="20" viewBox="0 0 20 20" fill="none" xmlns="http://www.w3.org/2000/svg">
<path d="M5.98692 0.999219C5.84285 0.999219 5.70468 1.05645 5.60281 1.15832C5.50093 1.2602 5.4437 1.39836 5.4437 1.54243V3.0982H3.49899C2.83644 3.09878 2.2012 3.36223 1.73271 3.83072C1.26422 4.29921 1.00077 4.93445 1.0002 5.597V16.5004C1.00077 17.163 1.26422 17.7982 1.73271 18.2667C2.2012 18.7352 2.83644 18.9986 3.49899 18.9992H16.484C17.1466 18.9986 17.7818 18.7352 18.2503 18.2667C18.7188 17.7982 18.9822 17.163 18.9828 16.5004V5.597C18.9822 4.93445 18.7188 4.29921 18.2503 3.83072C17.7818 3.36223 17.1466 3.09878 16.484 3.0982H14.5393V1.54243C14.5393 1.39836 14.4821 1.2602 14.3802 1.15832C14.2783 1.05645 14.1402 0.999219 13.9961 0.999219C13.852 0.999219 13.7139 1.05645 13.612 1.15832C13.5101 1.2602 13.4529 1.39836 13.4529 1.54243V3.0982H10.5347V1.54243C10.5347 1.39836 10.4775 1.2602 10.3756 1.15832C10.2737 1.05645 10.1356 0.999219 9.9915 0.999219C9.84743 0.999219 9.70927 1.05645 9.60739 1.15832C9.50552 1.2602 9.44829 1.39836 9.44829 1.54243V3.0982H6.53013V1.54243C6.53013 1.39836 6.4729 1.2602 6.37103 1.15832C6.26916 1.05645 6.13099 0.999219 5.98692 0.999219ZM16.484 17.9128H3.49899C3.12441 17.9128 2.76517 17.764 2.5003 17.4991C2.23543 17.2342 2.08663 16.875 2.08663 16.5004V8.60641H17.8964V16.5004C17.8964 16.875 17.7476 17.2342 17.4827 17.4991C17.2178 17.764 16.8586 17.9128 16.484 17.9128ZM9.44829 4.18464V5.05378C9.26199 5.1715 9.11897 5.34656 9.04078 5.5526C8.96258 5.75864 8.95343 5.98451 9.01471 6.19619C9.07599 6.40788 9.20437 6.59393 9.38054 6.72634C9.55671 6.85874 9.77113 6.93034 9.9915 6.93034C10.2119 6.93034 10.4263 6.85874 10.6025 6.72634C10.7786 6.59393 10.907 6.40788 10.9683 6.19619C11.0296 5.98451 11.0204 5.75864 10.9422 5.5526C10.864 5.34656 10.721 5.1715 10.5347 5.05378V4.18464H13.4529V5.05378C13.2659 5.17157 13.1223 5.34693 13.0437 5.55344C12.9651 5.75995 12.9557 5.98641 13.017 6.19871C13.0783 6.411 13.207 6.59762 13.3836 6.73044C13.5601 6.86326 13.7751 6.93508 13.9961 6.93508C14.2171 6.93508 14.432 6.86326 14.6086 6.73044C14.7852 6.59762 14.9139 6.411 14.9752 6.19871C15.0365 5.98641 15.0271 5.75995 14.9485 5.55344C14.8699 5.34693 14.7263 5.17157 14.5393 5.05378V4.18464H16.484C16.8584 4.18521 17.2173 4.3342 17.4821 4.59894C17.7468 4.86369 17.8958 5.22259 17.8964 5.597V7.51998H2.08663V5.597C2.0872 5.22259 2.23619 4.86369 2.50093 4.59894C2.76568 4.3342 3.12458 4.18521 3.49899 4.18464H5.45457V5.05378C5.26826 5.1715 5.12525 5.34656 5.04705 5.5526C4.96885 5.75864 4.95971 5.98451 5.02098 6.19619C5.08226 6.40788 5.21065 6.59393 5.38682 6.72634C5.56299 6.85874 5.7774 6.93034 5.99778 6.93034C6.21816 6.93034 6.43257 6.85874 6.60874 6.72634C6.78491 6.59393 6.9133 6.40788 6.97458 6.19619C7.03586 5.98451 7.02671 5.75864 6.94851 5.5526C6.87031 5.34656 6.7273 5.1715 6.541 5.05378V4.18464H9.44829Z" fill="currentColor"/>
<path fill-rule="evenodd" clip-rule="evenodd" d="M5.39067 0.946191C5.54881 0.788057 5.76328 0.699219 5.98692 0.699219C6.21055 0.699219 6.42503 0.788057 6.58316 0.946191C6.74129 1.10432 6.83013 1.3188 6.83013 1.54243V2.7982H9.14829V1.54243C9.14829 1.3188 9.23713 1.10433 9.39526 0.946191C9.55339 0.788057 9.76787 0.699219 9.9915 0.699219C10.2151 0.699219 10.4296 0.788057 10.5877 0.946191C10.7459 1.10433 10.8347 1.3188 10.8347 1.54243V2.7982H13.1529V1.54243C13.1529 1.3188 13.2417 1.10433 13.3998 0.946191C13.558 0.788057 13.7725 0.699219 13.9961 0.699219C14.2197 0.699219 14.4342 0.788057 14.5923 0.946191C14.7505 1.10433 14.8393 1.3188 14.8393 1.54243V2.7982H16.484C17.226 2.79885 17.9377 3.0939 18.4624 3.61859C18.9871 4.14328 19.2822 4.85472 19.2828 5.59674V16.5004C19.2822 17.2424 18.9871 17.9541 18.4624 18.4788C17.9377 19.0035 17.2263 19.2986 16.4843 19.2992H3.49899C2.75697 19.2986 2.04527 19.0035 1.52058 18.4788C0.995891 17.9541 0.70084 17.2427 0.700195 16.5007L0.700195 5.597C0.70084 4.85498 0.995891 4.14327 1.52058 3.61859C2.04527 3.0939 2.75671 2.79885 3.49873 2.7982H5.1437V1.54243C5.1437 1.3188 5.23254 1.10433 5.39067 0.946191ZM5.98692 1.29922C5.92241 1.29922 5.86055 1.32484 5.81494 1.37046C5.76933 1.41607 5.7437 1.47793 5.7437 1.54243V3.3982H3.49925C2.91618 3.39871 2.35714 3.63056 1.94484 4.04285C1.53258 4.45511 1.30074 5.0141 1.3002 5.59713V16.5003C1.30074 17.0833 1.53258 17.6423 1.94484 18.0546C2.35713 18.4669 2.91618 18.6987 3.49925 18.6992H16.4838C17.0668 18.6987 17.6259 18.4669 18.0382 18.0546C18.4505 17.6423 18.6823 17.0832 18.6828 16.5002V5.59726C18.6823 5.01419 18.4505 4.45514 18.0382 4.04285C17.6259 3.63056 17.0668 3.39871 16.4838 3.3982H14.2393V1.54243C14.2393 1.47793 14.2137 1.41607 14.1681 1.37046C14.1225 1.32484 14.0606 1.29922 13.9961 1.29922C13.9316 1.29922 13.8697 1.32484 13.8241 1.37046C13.7785 1.41607 13.7529 1.47793 13.7529 1.54243V3.3982H10.2347V1.54243C10.2347 1.47793 10.2091 1.41607 10.1635 1.37046C10.1179 1.32484 10.056 1.29922 9.9915 1.29922C9.927 1.29922 9.86514 1.32484 9.81952 1.37046C9.77391 1.41607 9.74829 1.47793 9.74829 1.54243V3.3982H6.23013V1.54243C6.23013 1.47793 6.20451 1.41607 6.1589 1.37046C6.11328 1.32484 6.05142 1.29922 5.98692 1.29922ZM3.49899 3.88464L5.75457 3.88464V5.21909L5.61482 5.30739C5.48348 5.39039 5.38266 5.5138 5.32753 5.65905C5.2724 5.80431 5.26595 5.96354 5.30915 6.11278C5.35235 6.26201 5.44287 6.39318 5.56706 6.48652C5.69126 6.57986 5.84242 6.63033 5.99778 6.63033C6.15315 6.63033 6.3043 6.57986 6.4285 6.48652C6.5527 6.39318 6.64321 6.26201 6.68641 6.11278C6.72961 5.96354 6.72316 5.80431 6.66803 5.65905C6.6129 5.5138 6.51208 5.39039 6.38074 5.30739L6.241 5.21909V3.88464H9.74829V5.21909L9.60855 5.30739C9.47721 5.39039 9.37638 5.5138 9.32125 5.65905C9.26613 5.80431 9.25968 5.96354 9.30288 6.11278C9.34608 6.26201 9.43659 6.39318 9.56079 6.48652C9.68498 6.57986 9.83614 6.63033 9.9915 6.63033C10.1469 6.63033 10.298 6.57986 10.4222 6.48652C10.5464 6.39318 10.6369 6.26201 10.6801 6.11278C10.7233 5.96354 10.7169 5.80431 10.6618 5.65905C10.6066 5.5138 10.5058 5.39039 10.3745 5.30739L10.2347 5.21909V3.88464H13.7529V5.21935L13.6128 5.30761C13.4809 5.39072 13.3795 5.51446 13.3241 5.66017C13.2686 5.80589 13.262 5.96569 13.3052 6.11548C13.3485 6.26528 13.4393 6.39696 13.5639 6.49068C13.6885 6.5844 13.8402 6.63508 13.9961 6.63508C14.152 6.63508 14.3037 6.5844 14.4283 6.49068C14.5529 6.39696 14.6437 6.26528 14.6869 6.11548C14.7302 5.96569 14.7236 5.80589 14.6681 5.66017C14.6126 5.51446 14.5113 5.39072 14.3794 5.30761L14.2393 5.21935V3.88464H16.484C16.9378 3.88533 17.3733 4.06592 17.6942 4.38681C18.0151 4.7077 18.1957 5.14273 18.1964 5.59654L18.1964 7.81998H1.78663V5.597C1.78732 5.14319 1.96791 4.7077 2.2888 4.38681C2.60969 4.06592 3.04518 3.88533 3.49899 3.88464ZM5.15457 4.48464L3.49945 4.48464C3.2045 4.48513 2.92163 4.60251 2.71306 4.81107C2.5045 5.01964 2.38712 5.30236 2.38663 5.59731V7.21998H5.83297C5.60658 7.19143 5.39049 7.10438 5.20658 6.96616C4.97844 6.79469 4.81217 6.55375 4.73281 6.27961C4.65346 6.00547 4.66531 5.71297 4.76657 5.44615C4.84729 5.23349 4.98132 5.04631 5.15457 4.90189V4.48464ZM6.1626 7.21998H9.82669C9.60031 7.19143 9.38421 7.10438 9.2003 6.96616C8.97216 6.79469 8.80589 6.55375 8.72654 6.27961C8.64718 6.00547 8.65903 5.71297 8.7603 5.44615C8.84101 5.23349 8.97505 5.04631 9.14829 4.90189V4.48464H6.841V4.90189C7.01424 5.0463 7.14828 5.23349 7.22899 5.44615C7.33026 5.71297 7.3421 6.00547 7.26275 6.27961C7.18339 6.55375 7.01713 6.79469 6.78899 6.96616C6.60507 7.10438 6.38898 7.19143 6.1626 7.21998ZM10.1563 7.21998H13.7971C13.5826 7.18724 13.3783 7.10188 13.2032 6.9702C12.9746 6.79828 12.8081 6.55672 12.7288 6.28193C12.6494 6.00714 12.6616 5.71401 12.7633 5.4467C12.8444 5.23362 12.979 5.04615 13.1529 4.90163V4.48464H10.8347V4.90189C11.008 5.04631 11.142 5.23349 11.2227 5.44615C11.324 5.71297 11.3358 6.00547 11.2565 6.27961C11.1771 6.55375 11.0109 6.79469 10.7827 6.96616C10.5988 7.10438 10.3827 7.19143 10.1563 7.21998ZM14.1951 7.21998H17.5964V5.59746C17.5959 5.30246 17.4785 5.01967 17.2699 4.81107C17.0614 4.60251 16.7787 4.48513 16.4837 4.48464H14.8393V4.90163C15.0132 5.04615 15.1477 5.23362 15.2289 5.4467C15.3306 5.71401 15.3427 6.00714 15.2634 6.28193C15.184 6.55672 15.0175 6.79828 14.789 6.9702C14.6139 7.10188 14.4096 7.18724 14.1951 7.21998ZM1.78663 8.30641H18.1964V16.5004C18.1964 16.9546 18.016 17.3901 17.6948 17.7112C17.3737 18.0324 16.9382 18.2128 16.484 18.2128H3.49899C3.04484 18.2128 2.6093 18.0324 2.28817 17.7112C1.96704 17.3901 1.78663 16.9546 1.78663 16.5004V8.30641ZM2.38663 8.90641V16.5004C2.38663 16.7954 2.50382 17.0784 2.71243 17.287C2.92104 17.4956 3.20397 17.6128 3.49899 17.6128H16.484C16.779 17.6128 17.062 17.4956 17.2706 17.287C17.4792 17.0784 17.5964 16.7954 17.5964 16.5004V8.90641H2.38663Z" fill="currentColor"/>
</svg>
