<svg width="24" height="24" viewBox="0 0 24 24" fill="none" xmlns="http://www.w3.org/2000/svg">
<g id="icon / delete">
<path id="Vector" fill-rule="evenodd" clip-rule="evenodd" d="M7.5 4C7.5 2.89543 8.39543 2 9.5 2H14.5C15.6046 2 16.5 2.89543 16.5 4V5H22C22.5523 5 23 5.44772 23 6C23 6.55228 22.5523 7 22 7H19.4706V19.5C19.4706 21.1569 18.1274 22.5 16.4706 22.5H7.52941C5.87256 22.5 4.52941 21.1569 4.52941 19.5V7H2C1.44772 7 1 6.55228 1 6C1 5.44772 1.44772 5 2 5H7.5V4ZM9.5 5H14.5V4H9.5V5ZM6.52941 7V19.5C6.52941 20.0523 6.97713 20.5 7.52941 20.5H16.4706C17.0229 20.5 17.4706 20.0523 17.4706 19.5V7H6.52941ZM10 9C10.5523 9 11 9.44772 11 10V16C11 16.5523 10.5523 17 10 17C9.44772 17 9 16.5523 9 16V10C9 9.44772 9.44772 9 10 9ZM14 9C14.5523 9 15 9.44772 15 10V16C15 16.5523 14.5523 17 14 17C13.4477 17 13 16.5523 13 16V10C13 9.44772 13.4477 9 14 9Z" fill="#F28482"/>
</g>
</svg>
