<svg width="24" height="25" viewBox="0 0 24 25" fill="none" xmlns="http://www.w3.org/2000/svg">
<g id="icon / delete">
<path id="Vector" fill-rule="evenodd" clip-rule="evenodd" d="M7.5 4.5C7.5 3.39543 8.39543 2.5 9.5 2.5H14.5C15.6046 2.5 16.5 3.39543 16.5 4.5V5.5H22C22.5523 5.5 23 5.94772 23 6.5C23 7.05228 22.5523 7.5 22 7.5H19.4706V20C19.4706 21.6569 18.1274 23 16.4706 23H7.52941C5.87256 23 4.52941 21.6569 4.52941 20V7.5H2C1.44772 7.5 1 7.05228 1 6.5C1 5.94772 1.44772 5.5 2 5.5H7.5V4.5ZM9.5 5.5H14.5V4.5H9.5V5.5ZM6.52941 7.5V20C6.52941 20.5523 6.97713 21 7.52941 21H16.4706C17.0229 21 17.4706 20.5523 17.4706 20V7.5H6.52941ZM10 9.5C10.5523 9.5 11 9.94772 11 10.5V16.5C11 17.0523 10.5523 17.5 10 17.5C9.44772 17.5 9 17.0523 9 16.5V10.5C9 9.94772 9.44772 9.5 10 9.5ZM14 9.5C14.5523 9.5 15 9.94772 15 10.5V16.5C15 17.0523 14.5523 17.5 14 17.5C13.4477 17.5 13 17.0523 13 16.5V10.5C13 9.94772 13.4477 9.5 14 9.5Z" fill="#F28482"/>
</g>
</svg>
