<svg width="24" height="24" viewBox="0 0 24 24" fill="none" xmlns="http://www.w3.org/2000/svg">
<path fill-rule="evenodd" clip-rule="evenodd" d="M20 0.878662C19.1722 0.878662 18.3783 1.20751 17.7929 1.79288L8.29289 11.2929C8.16473 11.421 8.07382 11.5816 8.02986 11.7574L7.02986 15.7574C6.85007 16.4766 7.52337 17.1499 8.24254 16.9701L12.2425 15.9701C12.4184 15.9262 12.5789 15.8352 12.7071 15.7071L22.2071 6.20709C22.7925 5.62173 23.1213 4.82781 23.1213 3.99998C23.1213 2.2999 21.7001 0.878662 20 0.878662ZM19.2071 3.20709C20.247 2.16719 21.7701 3.8157 20.7929 4.79288L11.4888 14.097L9.37437 14.6256L9.90296 12.5112L19.2071 3.20709Z" fill="black"/>
<path d="M4 3C2.366 3 1 4.366 1 6V20C1 21.634 2.366 23 4 23H18C19.634 23 21 21.634 21 20V13C21 11.7103 19 11.7103 19 13V20C19 20.5447 18.5447 21 18 21H4C3.45533 21 3 20.5447 3 20V6C3 5.45533 3.45533 5 4 5H11C12.2897 5 12.2897 3 11 3H4Z" fill="black"/>
</svg>
