<svg width="20" height="15" viewBox="0 0 20 15" fill="none" xmlns="http://www.w3.org/2000/svg">
<path d="M14.2219 8.4451C12.8781 8.4451 11.7571 9.39936 11.4997 10.6672L1.7219 10.6673C1.41507 10.6673 1.16634 10.916 1.16634 11.2229C1.16634 11.5297 1.41507 11.7784 1.7219 11.7784L11.4998 11.7791C11.7574 13.0467 12.8783 14.0007 14.2219 14.0007C15.5655 14.0007 16.6863 13.0467 16.944 11.7791L18.9441 11.7784C19.2509 11.7784 19.4997 11.5297 19.4997 11.2229C19.4997 10.916 19.2509 10.6673 18.9441 10.6673L16.9441 10.6672C16.6867 9.39936 15.5657 8.4451 14.2219 8.4451ZM14.2219 9.55621C15.1424 9.55621 15.8886 10.3024 15.8886 11.2229C15.8886 12.1433 15.1424 12.8895 14.2219 12.8895C13.3014 12.8895 12.5552 12.1433 12.5552 11.2229C12.5552 10.3024 13.3014 9.55621 14.2219 9.55621ZM6.44412 0.667318C5.10029 0.667318 3.97934 1.62158 3.72193 2.88944L1.7219 2.88954C1.41507 2.88954 1.16634 3.13827 1.16634 3.4451C1.16634 3.75192 1.41507 4.00065 1.7219 4.00065L3.72204 4.00131C3.97967 5.2689 5.10049 6.22287 6.44412 6.22287C7.78775 6.22287 8.90857 5.2689 9.16619 4.00131L18.9441 4.00065C19.2509 4.00065 19.4997 3.75192 19.4997 3.4451C19.4997 3.13827 19.2509 2.88954 18.9441 2.88954L9.16631 2.88944C8.9089 1.62158 7.78795 0.667318 6.44412 0.667318ZM6.44412 1.77843C7.36459 1.77843 8.11079 2.52462 8.11079 3.4451C8.11079 4.36557 7.36459 5.11176 6.44412 5.11176C5.52364 5.11176 4.77745 4.36557 4.77745 3.4451C4.77745 2.52462 5.52364 1.77843 6.44412 1.77843Z" fill="#FEFFFF"/>
<path fill-rule="evenodd" clip-rule="evenodd" d="M3.46196 2.55612C3.84454 1.27109 5.03457 0.333984 6.44412 0.333984C7.85367 0.333984 9.04369 1.27108 9.42628 2.55611L18.9441 2.55621C19.435 2.55621 19.833 2.95418 19.833 3.4451C19.833 3.93602 19.435 4.33398 18.9441 4.33398L9.42611 4.33463C9.04335 5.61937 7.85347 6.55621 6.44412 6.55621C5.03474 6.55621 3.84484 5.61934 3.46211 4.33456L1.7219 4.33398C1.23103 4.33393 0.833008 3.93598 0.833008 3.4451C0.833008 2.95418 1.23097 2.55622 1.72188 2.55621L3.46196 2.55612ZM6.44412 1.00065C5.26194 1.00065 4.27509 1.84019 4.04859 2.95576L3.99439 3.22276L1.72191 3.22287C1.59918 3.22287 1.49967 3.32237 1.49967 3.4451C1.49967 3.56783 1.59917 3.66732 1.7219 3.66732L3.99446 3.66807L4.0487 3.93492C4.27538 5.05026 5.26211 5.88954 6.44412 5.88954C7.62613 5.88954 8.61285 5.05026 8.83954 3.93492L8.89379 3.668L18.9441 3.66732C19.0669 3.66732 19.1663 3.56783 19.1663 3.4451C19.1663 3.32237 19.0669 3.22287 18.9441 3.22287L8.89385 3.22277L8.83964 2.95576C8.61315 1.84019 7.6263 1.00065 6.44412 1.00065ZM6.44412 2.11176C5.70774 2.11176 5.11079 2.70872 5.11079 3.4451C5.11079 4.18148 5.70774 4.77843 6.44412 4.77843C7.1805 4.77843 7.77745 4.18148 7.77745 3.4451C7.77745 2.70872 7.1805 2.11176 6.44412 2.11176ZM4.44412 3.4451C4.44412 2.34053 5.33955 1.4451 6.44412 1.4451C7.54869 1.4451 8.44412 2.34053 8.44412 3.4451C8.44412 4.54967 7.54869 5.4451 6.44412 5.4451C5.33955 5.4451 4.44412 4.54967 4.44412 3.4451ZM11.2397 10.3339C11.6223 9.04886 12.8124 8.11176 14.2219 8.11176C15.6314 8.11176 16.8215 9.04887 17.2041 10.3339L18.9441 10.334C19.435 10.334 19.833 10.732 19.833 11.2229C19.833 11.7138 19.4351 12.1117 18.9442 12.1118L17.2039 12.1123C16.8212 13.3971 15.6313 14.334 14.2219 14.334C12.8125 14.334 11.6227 13.3972 11.2399 12.1124L1.7219 12.1118C1.23099 12.1118 0.833008 11.7138 0.833008 11.2229C0.833008 10.732 1.23098 10.334 1.72189 10.334L11.2397 10.3339ZM14.2219 8.77843C13.0397 8.77843 12.0529 9.61796 11.8264 10.7335L11.7722 11.0005L1.7219 11.0007C1.59917 11.0007 1.49967 11.1001 1.49967 11.2229C1.49967 11.3456 1.59917 11.4451 1.7219 11.4451L11.7722 11.4458L11.8265 11.7127C12.0532 12.828 13.0399 13.6673 14.2219 13.6673C15.4039 13.6673 16.3906 12.828 16.6173 11.7127L16.6716 11.4458L18.944 11.4451C19.0667 11.4451 19.1663 11.3456 19.1663 11.2229C19.1663 11.1001 19.0669 11.0007 18.9441 11.0007L16.6716 11.0005L16.6174 10.7335C16.3909 9.61796 15.4041 8.77843 14.2219 8.77843ZM14.2219 9.88954C13.4855 9.88954 12.8886 10.4865 12.8886 11.2229C12.8886 11.9593 13.4855 12.5562 14.2219 12.5562C14.9583 12.5562 15.5552 11.9593 15.5552 11.2229C15.5552 10.4865 14.9583 9.88954 14.2219 9.88954ZM12.2219 11.2229C12.2219 10.1183 13.1173 9.22287 14.2219 9.22287C15.3265 9.22287 16.2219 10.1183 16.2219 11.2229C16.2219 12.3274 15.3265 13.2229 14.2219 13.2229C13.1173 13.2229 12.2219 12.3274 12.2219 11.2229Z" fill="#FEFFFF"/>
</svg>
