<svg viewBox="0 0 24 24" fill="none" xmlns="http://www.w3.org/2000/svg">
<g id="icon/heart">
<path id="Vector" fill-rule="evenodd" clip-rule="evenodd" d="M8.3 5C5.82839 5 4 7.37386 4 9.76C4 10.9021 4.44922 12.0517 5.21099 13.1733C5.97184 14.2936 7.00716 15.3298 8.07976 16.2227C9.14848 17.1123 10.2266 17.8367 11.0477 18.3384C11.4363 18.5759 11.7635 18.7611 12 18.8883C12.2365 18.7611 12.5637 18.5759 12.9523 18.3384C13.7734 17.8367 14.8515 17.1123 15.9202 16.2227C16.9928 15.3298 18.0282 14.2936 18.789 13.1733C19.5508 12.0517 20 10.9021 20 9.76C20 7.37386 18.1716 5 15.7 5C14.256 5 13.321 5.7095 12.7572 6.36313C12.5673 6.58337 12.2908 6.71 12 6.71C11.7092 6.71 11.4327 6.58337 11.2428 6.36313C10.679 5.7095 9.74403 5 8.3 5ZM2 9.76C2 6.58614 4.43161 3 8.3 3C9.93081 3 11.1475 3.61245 12 4.3153C12.8525 3.61245 14.0692 3 15.7 3C19.5684 3 22 6.58614 22 9.76C22 11.4329 21.3442 12.9708 20.4435 14.297C19.5418 15.6246 18.3572 16.7964 17.1998 17.7598C16.0385 18.7265 14.8766 19.5064 13.9952 20.045C13.5538 20.3147 13.1784 20.5266 12.9032 20.6733C12.7663 20.7463 12.6494 20.8057 12.5586 20.8491C12.5145 20.8702 12.4676 20.8918 12.4234 20.9101C12.4025 20.9188 12.3698 20.932 12.3317 20.9447C12.3131 20.951 12.2814 20.9611 12.2422 20.9707L12.2415 20.9709C12.2165 20.977 12.1221 21 12 21C11.8779 21 11.7835 20.977 11.7585 20.9709L11.7578 20.9707C11.7186 20.9611 11.6869 20.951 11.6683 20.9447C11.6302 20.932 11.5975 20.9188 11.5766 20.9101C11.5324 20.8918 11.4855 20.8702 11.4414 20.8491C11.3506 20.8057 11.2337 20.7463 11.0968 20.6733C10.8216 20.5266 10.4462 20.3147 10.0048 20.045C9.12342 19.5064 7.96152 18.7265 6.80024 17.7598C5.64284 16.7964 4.45816 15.6246 3.55651 14.297C2.65578 12.9708 2 11.4329 2 9.76Z" />
</g>
</svg>


