<svg width="20" height="20" viewBox="0 0 20 20" fill="none" xmlns="http://www.w3.org/2000/svg">
<g id="icon/heart">
<g id="Vector">
<path fill-rule="evenodd" clip-rule="evenodd" d="M6.91675 4.16667C4.85707 4.16667 3.33341 6.14489 3.33341 8.13333C3.33341 9.08512 3.70776 10.0431 4.34258 10.9778C4.97661 11.9113 5.83939 12.7749 6.73322 13.5189C7.62381 14.2602 8.52223 14.8639 9.20647 15.282C9.53036 15.4799 9.80301 15.6343 10.0001 15.7402C10.1972 15.6343 10.4698 15.4799 10.7937 15.282C11.4779 14.8639 12.3764 14.2602 13.2669 13.5189C14.1608 12.7749 15.0236 11.9113 15.6576 10.9778C16.2924 10.0431 16.6667 9.08512 16.6667 8.13333C16.6667 6.14489 15.1431 4.16667 13.0834 4.16667C11.8801 4.16667 11.1009 4.75792 10.6311 5.30261C10.4728 5.48614 10.2425 5.59167 10.0001 5.59167C9.75771 5.59167 9.52734 5.48614 9.36904 5.30261C8.89925 4.75792 8.12011 4.16667 6.91675 4.16667ZM1.66675 8.13333C1.66675 5.48845 3.69309 2.5 6.91675 2.5C8.27575 2.5 9.28963 3.01037 10.0001 3.59608C10.7105 3.01037 11.7244 2.5 13.0834 2.5C16.3071 2.5 18.3334 5.48845 18.3334 8.13333C18.3334 9.52738 17.7869 10.809 17.0363 11.9142C16.2849 13.0205 15.2977 13.997 14.3332 14.7999C13.3655 15.6054 12.3972 16.2554 11.6627 16.7042C11.2949 16.9289 10.982 17.1055 10.7527 17.2278C10.6387 17.2886 10.5413 17.3381 10.4656 17.3743C10.4288 17.3918 10.3898 17.4098 10.3529 17.4251C10.3355 17.4323 10.3082 17.4433 10.2765 17.454C10.261 17.4592 10.2346 17.4676 10.2019 17.4756C10.1811 17.4807 10.1018 17.5 10.0001 17.5C9.89837 17.5 9.81965 17.4808 9.79885 17.4757C9.76615 17.4678 9.73918 17.4592 9.72363 17.454C9.69194 17.4433 9.66464 17.4323 9.64724 17.4251C9.61038 17.4098 9.57132 17.3918 9.53458 17.3743C9.45888 17.3381 9.36146 17.2886 9.24745 17.2278C9.01812 17.1055 8.70527 16.9289 8.33745 16.7042C7.60293 16.2554 6.63469 15.6054 5.66695 14.7999C4.70244 13.997 3.71522 13.0205 2.96384 11.9142C2.21323 10.809 1.66675 9.52738 1.66675 8.13333Z" />
<path d="M5.83342 13.75C3.75008 12.0833 2.50008 9.65415 2.50008 7.5C2.50008 5.19881 4.36556 3.33333 6.66675 3.33333C8.02975 3.33333 9.23989 3.98779 10.0001 4.9996C10.7603 3.98779 11.9704 3.33333 13.3334 3.33333C15.6346 3.33333 17.5001 5.19881 17.5001 7.5C17.5001 9.28249 16.2501 11.25 14.1667 13.3333L10.0001 16.6667L5.83342 13.75Z" />
</g>
</g>
</svg>
