<svg viewBox="0 0 56 56" fill="none" xmlns="http://www.w3.org/2000/svg">
<path d="M0 28C0 12.536 12.536 0 28 0C43.464 0 56 12.536 56 28C56 43.464 43.464 56 28 56C12.536 56 0 43.464 0 28Z" fill="#020617"/>
<path d="M33.0007 22.1667C33.4321 22.1667 33.787 22.4946 33.8297 22.9148C33.8325 22.9428 33.834 22.9712 33.834 23V33C33.834 33.4602 33.4609 33.8333 33.0007 33.8333H26.334C25.5007 33.8333 25.5007 35.5 26.334 35.5H33.0007C34.3814 35.5 35.5007 34.3807 35.5007 33V23C35.5007 21.6193 34.3814 20.5 33.0007 20.5H26.334C25.5007 20.5 25.5007 22.1667 26.334 22.1667H33.0007Z" fill="#FEFFFF"/>
<path d="M28.5899 24.0774C28.2645 23.752 27.7368 23.752 27.4114 24.0774C27.086 24.4028 27.086 24.9305 27.4114 25.2559L29.3221 27.1667H22.1673C21.7071 27.1667 21.334 27.5398 21.334 28C21.334 28.4602 21.7071 28.8333 22.1673 28.8333H29.3221L27.4114 30.7441C27.086 31.0695 27.086 31.5972 27.4114 31.9226C27.7368 32.248 28.2645 32.248 28.5899 31.9226L31.9232 28.5893C32.2487 28.2638 32.2487 27.7362 31.9232 27.4107L28.5899 24.0774Z" fill="#FEFFFF"/>
</svg>
