<svg viewBox="0 0 48 48" fill="none" xmlns="http://www.w3.org/2000/svg">
<path d="M30 17C30.5178 17 30.9436 17.3935 30.9948 17.8978C30.9983 17.9314 31 17.9655 31 18V30C31 30.5523 30.5523 31 30 31H22C21 31 21 33 22 33H30C31.6569 33 33 31.6569 33 30V18C33 16.3431 31.6569 15 30 15H22C21 15 21 17 22 17H30Z" fill="#1C1C1E"/>
<path d="M24.7071 19.2929C24.3166 18.9024 23.6834 18.9024 23.2929 19.2929C22.9024 19.6834 22.9024 20.3166 23.2929 20.7071L25.5858 23H17C16.4477 23 16 23.4477 16 24C16 24.5523 16.4477 25 17 25H25.5858L23.2929 27.2929C22.9024 27.6834 22.9024 28.3166 23.2929 28.7071C23.6834 29.0976 24.3166 29.0976 24.7071 28.7071L28.7071 24.7071C29.0976 24.3166 29.0976 23.6834 28.7071 23.2929L24.7071 19.2929Z" fill="#1C1C1E"/>
</svg>
