<svg width="64" height="64" viewBox="0 0 64 64" fill="none" xmlns="http://www.w3.org/2000/svg">
<path d="M0 32C0 14.3269 14.3269 0 32 0C49.6731 0 64 14.3269 64 32C64 49.6731 49.6731 64 32 64C14.3269 64 0 49.6731 0 32Z" fill="#1C1C1E"/>
<path fill-rule="evenodd" clip-rule="evenodd" d="M32 24C30.3431 24 29 25.3431 29 27C29 28.6569 30.3431 30 32 30C33.6569 30 35 28.6569 35 27C35 25.3431 33.6569 24 32 24ZM27 27C27 24.2386 29.2386 22 32 22C34.7614 22 37 24.2386 37 27C37 29.7614 34.7614 32 32 32C29.2386 32 27 29.7614 27 27ZM26.083 40H37.917C37.441 37.1623 34.973 35 32 35C29.027 35 26.559 37.1623 26.083 40ZM24 41C24 36.5817 27.5817 33 32 33C36.4183 33 40 36.5817 40 41C40 41.5523 39.5523 42 39 42H25C24.4477 42 24 41.5523 24 41Z" fill="#FDFDFD"/>
</svg>
