<svg width="32" height="32" viewBox="0 0 32 32" fill="none" xmlns="http://www.w3.org/2000/svg">
<path fill-rule="evenodd" clip-rule="evenodd" d="M22.6654 17.3333C22.6654 21.0152 19.6806 24 15.9987 24C12.3168 24 9.33203 21.0152 9.33203 17.3333C9.33203 13.6514 12.3168 10.6667 15.9987 10.6667C19.6806 10.6667 22.6654 13.6514 22.6654 17.3333ZM20.2654 17.3333C20.2654 19.6897 18.3551 21.6 15.9987 21.6C13.6423 21.6 11.732 19.6897 11.732 17.3333C11.732 14.9769 13.6423 13.0667 15.9987 13.0667C18.3551 13.0667 20.2654 14.9769 20.2654 17.3333Z" fill="#FEFFFF"/>
<path fill-rule="evenodd" clip-rule="evenodd" d="M12.8227 4C11.8127 4 10.8893 4.57067 10.4376 5.4741L9.17465 8H5.33203C3.12289 8 1.33203 9.79086 1.33203 12V24C1.33203 26.2091 3.12289 28 5.33203 28H26.6654C28.8745 28 30.6654 26.2091 30.6654 24V12C30.6654 9.79086 28.8745 8 26.6654 8H22.8227L21.5598 5.4741C21.1081 4.57067 20.1847 4 19.1747 4H12.8227ZM12.8227 6.66667L19.1747 6.66667L20.6219 9.56109C20.9606 10.2387 21.6532 10.6667 22.4107 10.6667H26.6654C27.4017 10.6667 27.9987 11.2636 27.9987 12V24C27.9987 24.7364 27.4017 25.3333 26.6654 25.3333H5.33203C4.59565 25.3333 3.9987 24.7364 3.9987 24V12C3.9987 11.2636 4.59565 10.6667 5.33203 10.6667H9.58667C10.3442 10.6667 11.0367 10.2387 11.3755 9.56109L12.8227 6.66667Z" fill="#FEFFFF"/>
</svg>
