<svg viewBox="0 0 48 48" fill="none" xmlns="http://www.w3.org/2000/svg">
<path fill-rule="evenodd" clip-rule="evenodd" d="M24 16C22.3431 16 21 17.3431 21 19C21 20.6569 22.3431 22 24 22C25.6569 22 27 20.6569 27 19C27 17.3431 25.6569 16 24 16ZM19 19C19 16.2386 21.2386 14 24 14C26.7614 14 29 16.2386 29 19C29 21.7614 26.7614 24 24 24C21.2386 24 19 21.7614 19 19ZM18.083 32H29.917C29.441 29.1623 26.973 27 24 27C21.027 27 18.559 29.1623 18.083 32ZM16 33C16 28.5817 19.5817 25 24 25C28.4183 25 32 28.5817 32 33C32 33.5523 31.5523 34 31 34H17C16.4477 34 16 33.5523 16 33Z" fill="#1C1C1E"/>
</svg>
