<svg width="20" height="20" viewBox="0 0 20 20" fill="none" xmlns="http://www.w3.org/2000/svg">
<path fill-rule="evenodd" clip-rule="evenodd" d="M9.99935 3.18117C6.23377 3.18117 3.18117 6.23377 3.18117 9.99935C3.18117 13.7649 6.23377 16.8175 9.99935 16.8175C13.7649 16.8175 16.8175 13.7649 16.8175 9.99935C16.8175 6.23377 13.7649 3.18117 9.99935 3.18117ZM1.66602 9.99935C1.66602 5.39698 5.39698 1.66602 9.99935 1.66602C14.6017 1.66602 18.3327 5.39698 18.3327 9.99935C18.3327 14.6017 14.6017 18.3327 9.99935 18.3327C5.39698 18.3327 1.66602 14.6017 1.66602 9.99935ZM9.24177 6.63235C9.24177 6.21395 9.58095 5.87477 9.99935 5.87477H10.0078C10.4262 5.87477 10.7653 6.21395 10.7653 6.63235V6.64076C10.7653 7.05916 10.4262 7.39834 10.0078 7.39834H9.99935C9.58095 7.39834 9.24177 7.05916 9.24177 6.64076V6.63235ZM9.99935 8.40002C10.4177 8.40002 10.7569 8.7392 10.7569 9.1576V14.2081C10.7569 14.6265 10.4177 14.9657 9.99935 14.9657C9.58095 14.9657 9.24177 14.6265 9.24177 14.2081V9.1576C9.24177 8.7392 9.58095 8.40002 9.99935 8.40002Z" fill="#020617"/>
</svg>
