<svg viewBox="0 0 20 18" fill="currentColor" xmlns="http://www.w3.org/2000/svg" xmlns:xlink="http://www.w3.org/1999/xlink">
	<defs/>
	<path id="Vector" d="M6.2998 2C3.82861 2 2 4.37378 2 6.76001C2 7.9021 2.44922 9.05176 3.21094 10.1733C3.97168 11.2935 5.00732 12.3298 6.07959 13.2227C7.14844 14.1123 8.22656 14.8367 9.04785 15.3384C9.43652 15.5759 9.76367 15.7612 10 15.8882C10.2363 15.7612 10.5635 15.5759 10.9521 15.3384C11.7734 14.8367 12.8516 14.1123 13.9204 13.2227C14.9927 12.3298 16.0283 11.2935 16.7891 10.1733C17.5508 9.05176 18 7.9021 18 6.76001C18 4.37378 16.1714 2 13.7002 2C12.2559 2 11.3208 2.70947 10.7573 3.36304C10.5674 3.58325 10.291 3.70996 10 3.70996C9.70898 3.70996 9.43262 3.58325 9.24268 3.36304C8.6792 2.70947 7.74414 2 6.2998 2ZM0 6.76001C0 3.58618 2.43164 0 6.2998 0C7.93066 0 9.14746 0.612549 10 1.31519C10.8525 0.612549 12.0693 0 13.7002 0C17.5684 0 20 3.58618 20 6.76001C20 8.43286 19.3442 9.9707 18.4434 11.2971C17.542 12.6245 16.3569 13.7964 15.1997 14.7598C14.0386 15.7266 12.8765 16.5063 11.9951 17.0449C11.5537 17.3147 11.1782 17.5266 10.9033 17.6733C10.7661 17.7463 10.6494 17.8057 10.5586 17.8491C10.5146 17.8701 10.4678 17.8918 10.4233 17.9102C10.4023 17.9187 10.3696 17.9319 10.3315 17.9448C10.313 17.9509 10.2812 17.9612 10.2422 17.9707L10.2417 17.9709C10.2163 17.9771 10.1221 18 10 18C9.87793 18 9.78369 17.9771 9.7583 17.9709L9.75781 17.9707C9.71875 17.9612 9.68701 17.9509 9.66846 17.9448C9.63037 17.9319 9.59766 17.9187 9.57666 17.9102C9.53223 17.8918 9.48535 17.8701 9.44141 17.8491C9.35059 17.8057 9.23389 17.7463 9.09668 17.6733C8.82178 17.5266 8.44629 17.3147 8.00488 17.0449C7.12354 16.5063 5.96143 15.7266 4.80029 14.7598C3.64307 13.7964 2.45801 12.6245 1.55664 11.2971C0.655762 9.9707 0 8.43286 0 6.76001Z" fill="currentColor" fill-opacity="1.000000" fill-rule="evenodd"/>
</svg>
