<svg width="24" height="24" viewBox="0 0 24 24" fill="none" xmlns="http://www.w3.org/2000/svg">
<g id="icon/logout">
<g id="Vector">
<path fill-rule="evenodd" clip-rule="evenodd" d="M14.61 7.29289C14.9788 6.90237 15.5768 6.90237 15.9456 7.29289L19.7234 11.2929C20.0922 11.6834 20.0922 12.3166 19.7234 12.7071L15.9456 16.7071C15.5768 17.0976 14.9788 17.0976 14.61 16.7071C14.2411 16.3166 14.2411 15.6834 14.61 15.2929L16.7755 13H7.72222C7.20062 13 6.77778 12.5523 6.77778 12C6.77778 11.4477 7.20062 11 7.72222 11H16.7755L14.61 8.70711C14.2411 8.31658 14.2411 7.68342 14.61 7.29289Z" fill="#475569"/>
<path d="M4.89376 5.89776C4.94213 5.3935 5.34433 5 5.83333 5H13.3889C14.3333 5 14.3333 3 13.3889 3H5.83333C4.26853 3 3 4.34315 3 6V18C3 19.6569 4.26853 21 5.83333 21H13.3889C14.3333 21 14.3333 19 13.3889 19H5.83333C5.31173 19 4.88889 18.5523 4.88889 18V6C4.88889 5.96548 4.89054 5.93137 4.89376 5.89776Z" fill="#475569"/>
</g>
</g>
</svg>
