<svg width="24" height="24" viewBox="0 0 24 24" fill="none" xmlns="http://www.w3.org/2000/svg">
<g id="icon/mobile">
<g id="Vector">
<path d="M9.71727 18.0606C9.29705 18.0606 8.9564 18.3998 8.9564 18.8182C8.9564 19.2366 9.29705 19.5758 9.71727 19.5758H14.2825C14.7027 19.5758 15.0434 19.2366 15.0434 18.8182C15.0434 18.3998 14.7027 18.0606 14.2825 18.0606H9.71727Z" fill="#020617"/>
<path fill-rule="evenodd" clip-rule="evenodd" d="M7.43466 2C6.08997 2 4.99988 3.08537 4.99988 4.42424V19.5758C4.99988 20.9146 6.08997 22 7.43466 22H16.5651C17.9098 22 18.9999 20.9146 18.9999 19.5758V4.42424C18.9999 3.08537 17.9098 2 16.5651 2H7.43466ZM6.82596 4.42424C6.82596 4.08952 7.09849 3.81818 7.43466 3.81818H16.5651C16.9013 3.81818 17.1738 4.08952 17.1738 4.42424V19.5758C17.1738 19.9105 16.9013 20.1818 16.5651 20.1818H7.43466C7.09849 20.1818 6.82596 19.9105 6.82596 19.5758V4.42424Z" fill="#020617"/>
</g>
</g>
</svg>
