<svg width="24" height="24" viewBox="0 0 24 24" fill="none" xmlns="http://www.w3.org/2000/svg">
<g id="icon/my projects">
<g id="Vector">
<path d="M4.04381 20.4581H19.9562C21.0834 20.4581 22 19.5412 22 18.4143V8.76974C22 7.64285 21.0834 6.72593 19.9562 6.72593H13.4997C13.2884 6.72593 13.0945 6.61956 12.9808 6.44168L11.389 3.94482C11.0116 3.35331 10.3674 3 9.66567 3H4.04381C2.91692 3 2 3.91692 2 5.04381V18.4143C2 19.5412 2.91693 20.4581 4.04381 20.4581ZM3.42858 5.04381C3.42858 4.70445 3.70446 4.42857 4.04381 4.42857H9.66568C9.87703 4.42857 10.0709 4.53495 10.1843 4.71282L11.7764 7.20968C12.1538 7.8012 12.798 8.1545 13.4997 8.1545H19.9562C20.2952 8.1545 20.5714 8.43038 20.5714 8.76974V18.4143C20.5714 18.7537 20.2952 19.0296 19.9562 19.0296H4.04381C3.70446 19.0296 3.42858 18.7537 3.42858 18.4143V5.04381Z" fill="#475569"/>
<path fill-rule="evenodd" clip-rule="evenodd" d="M1.75 5.04381C1.75 3.77885 2.77885 2.75 4.04381 2.75H9.66567C10.4528 2.75 11.1764 3.1469 11.5997 3.81036L13.1914 6.30704C13.1914 6.30701 13.1914 6.30706 13.1914 6.30704C13.2592 6.41308 13.3738 6.47593 13.4997 6.47593H19.9562C21.2215 6.47593 22.25 7.50481 22.25 8.76974V18.4143C22.25 19.6793 21.2215 20.7081 19.9562 20.7081H4.04381C2.77886 20.7081 1.75 19.6793 1.75 18.4143V5.04381ZM4.04381 3.25C3.05499 3.25 2.25 4.05499 2.25 5.04381V18.4143C2.25 19.4032 3.055 20.2081 4.04381 20.2081H19.9562C20.9453 20.2081 21.75 19.4032 21.75 18.4143V8.76974C21.75 7.7809 20.9453 6.97593 19.9562 6.97593H13.4997C13.203 6.97593 12.9297 6.82599 12.7701 6.57633L11.1782 4.07928C10.8467 3.55971 10.282 3.25 9.66567 3.25H4.04381ZM4.04381 4.67857C3.84253 4.67857 3.67858 4.84252 3.67858 5.04381V18.4143C3.67858 18.6156 3.84253 18.7796 4.04381 18.7796H19.9562C20.1572 18.7796 20.3214 18.6155 20.3214 18.4143V8.76974C20.3214 8.56855 20.1572 8.4045 19.9562 8.4045H13.4997C12.7126 8.4045 11.9889 8.0076 11.5657 7.34414L9.97351 4.84723C9.90611 4.74147 9.79171 4.67857 9.66568 4.67857H4.04381ZM3.17858 5.04381C3.17858 4.56638 3.56639 4.17857 4.04381 4.17857H9.66568C9.96236 4.17857 10.2358 4.32849 10.3951 4.57847L11.9872 7.07522C12.3187 7.59476 12.8834 7.9045 13.4997 7.9045H19.9562C20.4332 7.9045 20.8214 8.29222 20.8214 8.76974V18.4143C20.8214 18.8919 20.4332 19.2796 19.9562 19.2796H4.04381C3.56639 19.2796 3.17858 18.8918 3.17858 18.4143V5.04381Z" fill="#475569"/>
</g>
</g>
</svg>
