<svg width="24" height="24" viewBox="0 0 24 24" fill="none" xmlns="http://www.w3.org/2000/svg">
<path fill-rule="evenodd" clip-rule="evenodd" d="M3.75 3C2.7835 3 2 3.7835 2 4.75V6.09541C2 7.06191 2.7835 7.84541 3.75 7.84541H5.01461C5.9811 7.84541 6.76461 7.0619 6.76461 6.09541V4.75C6.76461 3.7835 5.9811 3 5.0146 3H3.75ZM3.5 4.75C3.5 4.61193 3.61193 4.5 3.75 4.5H5.0146C5.15268 4.5 5.26461 4.61193 5.26461 4.75V6.09541C5.26461 6.23348 5.15268 6.34541 5.01461 6.34541H3.75C3.61193 6.34541 3.5 6.23348 3.5 6.09541V4.75Z" fill="#475569"/>
<path fill-rule="evenodd" clip-rule="evenodd" d="M9.19092 3C8.22442 3 7.44092 3.7835 7.44092 4.75V6.09541C7.44092 7.0619 8.22442 7.84541 9.19092 7.84541H20.2493C21.2158 7.84541 21.9993 7.0619 21.9993 6.09541V4.75C21.9993 3.7835 21.2158 3 20.2493 3H9.19092ZM8.94092 4.75C8.94092 4.61193 9.05285 4.5 9.19092 4.5H20.2493C20.3874 4.5 20.4993 4.61193 20.4993 4.75V6.09541C20.4993 6.23348 20.3874 6.34541 20.2493 6.34541H9.19092C9.05285 6.34541 8.94092 6.23348 8.94092 6.09541V4.75Z" fill="#475569"/>
<path fill-rule="evenodd" clip-rule="evenodd" d="M7.44092 11.3255C7.44092 10.359 8.22442 9.5755 9.19092 9.5755H20.2493C21.2158 9.5755 21.9993 10.359 21.9993 11.3255V12.6709C21.9993 13.6374 21.2158 14.4209 20.2493 14.4209H9.19092C8.22442 14.4209 7.44092 13.6374 7.44092 12.6709V11.3255ZM9.19092 11.0755C9.05285 11.0755 8.94092 11.1874 8.94092 11.3255V12.6709C8.94092 12.809 9.05285 12.9209 9.19092 12.9209H20.2493C20.3874 12.9209 20.4993 12.809 20.4993 12.6709V11.3255C20.4993 11.1874 20.3874 11.0755 20.2493 11.0755H9.19092Z" fill="#475569"/>
<path fill-rule="evenodd" clip-rule="evenodd" d="M3.75 9.5755C2.7835 9.5755 2 10.359 2 11.3255V12.6709C2 13.6374 2.7835 14.4209 3.75 14.4209H5.01461C5.9811 14.4209 6.76461 13.6374 6.76461 12.6709V11.3255C6.76461 10.359 5.9811 9.5755 5.0146 9.5755H3.75ZM3.5 11.3255C3.5 11.1874 3.61193 11.0755 3.75 11.0755H5.0146C5.15268 11.0755 5.26461 11.1874 5.26461 11.3255V12.6709C5.26461 12.809 5.15268 12.9209 5.01461 12.9209H3.75C3.61193 12.9209 3.5 12.809 3.5 12.6709V11.3255Z" fill="#475569"/>
<path fill-rule="evenodd" clip-rule="evenodd" d="M7.44092 17.9016C7.44092 16.9351 8.22442 16.1516 9.19092 16.1516H20.2493C21.2158 16.1516 21.9993 16.9351 21.9993 17.9016V19.247C21.9993 20.2135 21.2158 20.997 20.2493 20.997H9.19092C8.22442 20.997 7.44092 20.2135 7.44092 19.247V17.9016ZM9.19092 17.6516C9.05285 17.6516 8.94092 17.7635 8.94092 17.9016V19.247C8.94092 19.3851 9.05285 19.497 9.19092 19.497H20.2493C20.3874 19.497 20.4993 19.3851 20.4993 19.247V17.9016C20.4993 17.7635 20.3874 17.6516 20.2493 17.6516H9.19092Z" fill="#475569"/>
<path fill-rule="evenodd" clip-rule="evenodd" d="M3.75 16.1516C2.7835 16.1516 2 16.9351 2 17.9016V19.247C2 20.2135 2.7835 20.997 3.75 20.997H5.01461C5.9811 20.997 6.76461 20.2135 6.76461 19.247V17.9016C6.76461 16.9351 5.9811 16.1516 5.0146 16.1516H3.75ZM3.5 17.9016C3.5 17.7635 3.61193 17.6516 3.75 17.6516H5.0146C5.15268 17.6516 5.26461 17.7635 5.26461 17.9016V19.247C5.26461 19.3851 5.15268 19.497 5.01461 19.497H3.75C3.61193 19.497 3.5 19.3851 3.5 19.247V17.9016Z" fill="#475569"/>
</svg>
