<svg width="24" height="24" viewBox="0 0 24 24" fill="none" xmlns="http://www.w3.org/2000/svg">
<g id="icon/specialists">
<g id="Vector">
<path fill-rule="evenodd" clip-rule="evenodd" d="M12.1998 6.5C12.1998 4.29086 13.9907 2.5 16.1998 2.5C18.4089 2.5 20.1998 4.29086 20.1998 6.5C20.1998 8.70914 18.4089 10.5 16.1998 10.5C13.9907 10.5 12.1998 8.70914 12.1998 6.5ZM16.1998 4.1C14.8743 4.1 13.7998 5.17452 13.7998 6.5C13.7998 7.82548 14.8743 8.9 16.1998 8.9C17.5253 8.9 18.5998 7.82548 18.5998 6.5C18.5998 5.17452 17.5253 4.1 16.1998 4.1Z" fill="#475569"/>
<path fill-rule="evenodd" clip-rule="evenodd" d="M10.5261 14.7359C11.5952 12.6936 13.7348 11.3 16.1998 11.3C19.7344 11.3 22.5998 14.1654 22.5998 17.7C22.5998 18.1418 22.2416 18.5 21.7998 18.5H14.2116C14.4628 19.186 14.5998 19.927 14.5998 20.7C14.5998 21.1418 14.2416 21.5 13.7998 21.5H2.5998C2.15798 21.5 1.7998 21.1418 1.7998 20.7C1.7998 17.1654 4.66518 14.3 8.1998 14.3C9.02048 14.3 9.80507 14.4545 10.5261 14.7359ZM20.9334 16.9H13.3501C12.9533 16.3631 12.4745 15.8904 11.9323 15.5005C12.73 13.9559 14.3416 12.9 16.1998 12.9C18.5782 12.9 20.5526 14.6298 20.9334 16.9ZM8.1998 15.9C10.5782 15.9 12.5526 17.6298 12.9334 19.9H3.46617C3.84703 17.6298 5.82141 15.9 8.1998 15.9Z" fill="#475569"/>
<path fill-rule="evenodd" clip-rule="evenodd" d="M8.1998 5.5C5.99066 5.5 4.1998 7.29086 4.1998 9.5C4.1998 11.7091 5.99066 13.5 8.1998 13.5C10.4089 13.5 12.1998 11.7091 12.1998 9.5C12.1998 7.29086 10.4089 5.5 8.1998 5.5ZM5.7998 9.5C5.7998 8.17452 6.87432 7.1 8.1998 7.1C9.52529 7.1 10.5998 8.17452 10.5998 9.5C10.5998 10.8255 9.52529 11.9 8.1998 11.9C6.87432 11.9 5.7998 10.8255 5.7998 9.5Z" fill="#475569"/>
</g>
</g>
</svg>
