<svg width="14" height="16" viewBox="0 0 14 16" fill="none" xmlns="http://www.w3.org/2000/svg">
<path id="Vector" d="M1.01386 15.4185C0.752168 15.4185 0.527858 15.299 0.340934 15.06C0.154009 14.8209 0.0605469 14.5366 0.0605469 14.2069C0.0605469 13.8607 0.154009 13.5639 0.340934 13.3167C0.527858 13.0694 0.752168 12.9458 1.01386 12.9458C1.26309 12.9458 1.47806 13.0694 1.65875 13.3167C1.83944 13.5639 1.92979 13.8607 1.92979 14.2069C1.92979 14.5366 1.83944 14.8209 1.65875 15.06C1.47806 15.299 1.26309 15.4185 1.01386 15.4185ZM3.79904 14.924V13.4403H13.5191V14.924H3.79904ZM1.01386 9.23664C0.752168 9.23664 0.527858 9.11713 0.340934 8.87809C0.154009 8.63906 0.0605469 8.34645 0.0605469 8.00027C0.0605469 7.65409 0.154009 7.36148 0.340934 7.12245C0.527858 6.88341 0.752168 6.7639 1.01386 6.7639C1.26309 6.7639 1.47806 6.88753 1.65875 7.13481C1.83944 7.38208 1.92979 7.67057 1.92979 8.00027C1.92979 8.32997 1.83944 8.61846 1.65875 8.86573C1.47806 9.11301 1.26309 9.23664 1.01386 9.23664ZM3.79904 8.74209V7.25845H13.5191V8.74209H3.79904ZM0.995169 3.05478C0.733475 3.05478 0.512281 2.93526 0.331587 2.69623C0.150894 2.4572 0.0605469 2.16459 0.0605469 1.8184C0.0605469 1.47222 0.150894 1.17961 0.331587 0.94058C0.512281 0.701548 0.733475 0.582031 0.995169 0.582031C1.25686 0.582031 1.47806 0.701548 1.65875 0.94058C1.83944 1.17961 1.92979 1.47222 1.92979 1.8184C1.92979 2.16459 1.83944 2.4572 1.65875 2.69623C1.47806 2.93526 1.25686 3.05478 0.995169 3.05478ZM3.79904 2.56023V1.07658H13.5191V2.56023H3.79904Z" fill="#020617"/>
</svg>
