<svg width="12" height="16" viewBox="0 0 12 16" fill="none" xmlns="http://www.w3.org/2000/svg">
<path id="Vector" d="M0.149414 15.947V14.6223H11.6853V15.947H0.149414ZM5.91737 12.4145C4.53031 12.4145 3.35956 11.9067 2.4051 10.8911C1.45064 9.87553 0.973408 8.6318 0.973408 7.15993V0.0507812H2.6214V7.20408C2.6214 8.17552 2.93726 8.99241 3.56899 9.65475C4.20072 10.3171 4.98351 10.6483 5.91737 10.6483C6.85123 10.6483 7.63402 10.3171 8.26575 9.65475C8.89748 8.99241 9.21334 8.17552 9.21334 7.20408V0.0507812H10.8613V7.15993C10.8613 8.6318 10.3841 9.87553 9.42964 10.8911C8.47518 11.9067 7.30443 12.4145 5.91737 12.4145Z" fill="#020617"/>
</svg>
