<svg width="10" height="16" viewBox="0 0 10 16" fill="none" xmlns="http://www.w3.org/2000/svg">
<path id="Vector" d="M0 15.4185V0.582031H5.34591C6.37758 0.582031 7.27247 0.952943 8.03059 1.69477C8.78871 2.43659 9.16777 3.3727 9.16777 4.5031C9.16777 5.17427 9.00364 5.79246 8.67538 6.35766C8.34712 6.92286 7.90945 7.35559 7.36235 7.65585V7.81481C8.0345 8.06209 8.57768 8.50365 8.99191 9.1395C9.40614 9.77535 9.61326 10.4907 9.61326 11.2855C9.61326 12.4865 9.20294 13.4756 8.38229 14.2528C7.56165 15.0299 6.60423 15.4185 5.51004 15.4185H0ZM2.01644 6.86104H5.20523C5.75232 6.86104 6.22517 6.65792 6.62377 6.25169C7.02237 5.84545 7.22167 5.33324 7.22167 4.71505C7.22167 4.09686 7.02237 3.58024 6.62377 3.16517C6.22517 2.7501 5.75232 2.54257 5.20523 2.54257H2.01644V6.86104ZM2.01644 13.405H5.3928C5.98679 13.405 6.50263 13.1842 6.9403 12.7426C7.37798 12.3011 7.59682 11.7447 7.59682 11.0735C7.59682 10.42 7.37798 9.87249 6.9403 9.43093C6.50263 8.98937 5.98679 8.76859 5.3928 8.76859H2.01644V13.405Z" fill="#020617"/>
</svg>
