<svg width="13" height="16" viewBox="0 0 13 16" fill="none" xmlns="http://www.w3.org/2000/svg">
<path id="Vector" d="M3.43141 0.762059L4.03424 0.0507812L8.91297 5.80717C9.12794 6.0608 9.23542 6.37233 9.23542 6.74175C9.23542 7.11118 9.12794 7.4227 8.91297 7.67634L6.41753 10.6207C6.20257 10.8743 5.95022 11.0011 5.66049 11.0011C5.37075 11.0011 5.1184 10.8743 4.90344 10.6207L2.408 7.67634C2.19304 7.4227 2.08555 7.11118 2.08555 6.74175C2.08555 6.37233 2.19304 6.0608 2.408 5.80717L5.05765 2.68085L3.43141 0.762059ZM5.66049 3.39213L2.87064 6.68386H8.45033L5.66049 3.39213ZM10.399 11.2824C10.1186 11.2824 9.88031 11.1666 9.68404 10.935C9.48777 10.7034 9.38963 10.4222 9.38963 10.0914C9.38963 9.90391 9.42702 9.6999 9.50179 9.47934C9.57655 9.25879 9.67936 9.03273 9.81021 8.80115C9.88498 8.65779 9.9761 8.50341 10.0836 8.33799C10.1911 8.17258 10.2962 8.01819 10.399 7.87483C10.5018 8.01819 10.607 8.17258 10.7145 8.33799C10.8219 8.50341 10.9131 8.65779 10.9878 8.80115C11.1187 9.03273 11.2215 9.25879 11.2963 9.47934C11.371 9.6999 11.4084 9.90391 11.4084 10.0914C11.4084 10.4222 11.3103 10.7034 11.114 10.935C10.9177 11.1666 10.6794 11.2824 10.399 11.2824ZM0.978027 15.947V13.9455H12.1935V15.947H0.978027Z" fill="#020617"/>
</svg>
