<svg viewBox="0 0 24 24" fill="none" xmlns="http://www.w3.org/2000/svg" xmlns:xlink="http://www.w3.org/1999/xlink">
	<defs/>
	<path id="Vector" d="M12 24C18.6274 24 24 18.6274 24 12C24 5.37256 18.6274 0 12 0C5.37256 0 0 5.37256 0 12C0 18.6274 5.37256 24 12 24Z" fill="#007BFE" fill-opacity="1.000000" fill-rule="nonzero"/>
	<path id="Vector" d="M3.94092 7.49316L6.73682 7.49316C6.82861 12.1663 8.88965 14.1458 10.5225 14.5537L10.5225 7.49316L13.1548 7.49316L13.1548 11.5234C14.7671 11.3499 16.4604 9.51343 17.0322 7.49316L19.6646 7.49316C19.4492 8.54077 19.02 9.53296 18.4038 10.4072C17.7876 11.2815 16.9976 12.0193 16.083 12.5745C17.104 13.0811 18.0059 13.7988 18.7285 14.6802C19.4517 15.5613 19.979 16.5859 20.2769 17.6863L17.3789 17.6863C17.1118 16.7305 16.5688 15.875 15.8174 15.2268C15.0654 14.5789 14.1392 14.1672 13.1548 14.0435L13.1548 17.6863L12.8384 17.6863C7.25732 17.6863 4.07373 13.8601 3.94092 7.49316Z" fill="#FEFEFE" fill-opacity="1.000000" fill-rule="nonzero"/>
</svg>
