<svg width="16" height="16" viewBox="0 0 16 16" fill="none" xmlns="http://www.w3.org/2000/svg">
<g id="icon/xmark">
<path id="Vector" fill-rule="evenodd" clip-rule="evenodd" d="M3.52827 3.52925C3.78862 3.2689 4.21073 3.2689 4.47108 3.52925L7.99967 7.05784L11.5283 3.52925C11.7886 3.2689 12.2107 3.2689 12.4711 3.52925C12.7314 3.7896 12.7314 4.21171 12.4711 4.47206L8.94248 8.00065L12.4711 11.5292C12.7314 11.7896 12.7314 12.2117 12.4711 12.4721C12.2107 12.7324 11.7886 12.7324 11.5283 12.4721L7.99967 8.94346L4.47108 12.4721C4.21073 12.7324 3.78862 12.7324 3.52827 12.4721C3.26792 12.2117 3.26792 11.7896 3.52827 11.5292L7.05687 8.00065L3.52827 4.47206C3.26792 4.21171 3.26792 3.7896 3.52827 3.52925Z" fill="#94A3B8"/>
</g>
</svg>
