<svg width="145" height="40" viewBox="0 0 145 40" fill="none" xmlns="http://www.w3.org/2000/svg">
<g clip-path="url(#clip0_44_7406)">
<path d="M0 20C0 8.95431 8.95431 0 20 0C31.0457 0 40 8.95431 40 20C40 31.0457 31.0457 40 20 40C8.95431 40 0 31.0457 0 20Z" fill="#8CAAFF"/>
<path fill-rule="evenodd" clip-rule="evenodd" d="M28.478 4.53102C28.4293 4.18792 28.0972 3.95721 27.7237 4.00667C26.0241 4.23169 23.161 5.23195 21.198 7.60613C19.6895 9.43054 19.1769 11.5047 19.0857 13.119C18.7431 12.547 18.2956 11.998 17.7193 11.5164C15.7558 9.87542 13.0809 9.67134 11.4341 9.81332C11.0569 9.84584 10.7708 10.1336 10.7705 10.4808C10.7694 11.9958 11.2427 14.4132 13.2061 16.0541C15.086 17.6252 17.6132 17.8838 19.2004 17.722V21.2199H12.8004C11.4749 21.2199 10.4004 22.2944 10.4004 23.6199C10.4004 24.7241 11.1461 25.6541 12.1613 25.9339L13.6821 32.6761C14.087 34.4713 14.2895 35.3689 14.9468 35.8944C15.604 36.4199 16.5242 36.4199 18.3645 36.4199H21.6361C23.4764 36.4199 24.3965 36.4199 25.0538 35.8944C25.711 35.3689 25.9135 34.4713 26.3184 32.6761L27.8392 25.934C28.8546 25.6543 29.6004 24.7242 29.6004 23.6199C29.6004 22.2944 28.5259 21.2199 27.2004 21.2199H20.8004V14.7439C22.539 14.2736 24.81 13.2461 26.454 11.2578C28.4169 8.88372 28.6996 6.09087 28.478 4.53102ZM26.8755 5.74925C25.5189 6.13694 23.7784 6.98735 22.512 8.51904C21.2628 10.0299 20.8244 11.7815 20.7464 13.1621C22.1721 12.7188 23.8903 11.8564 25.14 10.3449C26.407 8.81241 26.8327 7.04889 26.8755 5.74925ZM12.8004 22.8199C12.3586 22.8199 12.0004 23.1781 12.0004 23.6199C12.0004 24.0618 12.3586 24.4199 12.8004 24.4199H27.2004C27.6422 24.4199 28.0004 24.0618 28.0004 23.6199C28.0004 23.1781 27.6422 22.8199 27.2004 22.8199H12.8004ZM16.591 12.6508C17.7908 13.6535 18.2812 15.1015 18.3883 16.2351C17.1503 16.2399 15.5352 15.9233 14.3344 14.9197C13.1528 13.9322 12.6457 12.5092 12.492 11.3073C13.8151 11.3349 15.4103 11.6641 16.591 12.6508Z" fill="#1C1C1E"/>
<path d="M55.5 29.2386C54.0795 29.2386 52.8636 28.9574 51.8523 28.3949C50.8409 27.8267 50.0653 27.0369 49.5256 26.0256C48.9858 25.0085 48.7159 23.8295 48.7159 22.4886C48.7159 21.1477 48.9858 19.9716 49.5256 18.9602C50.0653 17.9432 50.8409 17.1534 51.8523 16.5909C52.8636 16.0227 54.0795 15.7386 55.5 15.7386C56.7841 15.7386 57.8949 15.9716 58.8324 16.4375C59.7756 16.8977 60.5057 17.5511 61.0227 18.3977C61.5398 19.2386 61.8011 20.2273 61.8068 21.3636H57.4432C57.3807 20.6761 57.1818 20.1534 56.8466 19.7955C56.517 19.4318 56.0909 19.25 55.5682 19.25C55.1591 19.25 54.8011 19.3693 54.4943 19.608C54.1875 19.8409 53.9489 20.196 53.7784 20.6733C53.608 21.1449 53.5227 21.7386 53.5227 22.4545C53.5227 23.1705 53.608 23.767 53.7784 24.2443C53.9489 24.7159 54.1875 25.071 54.4943 25.3097C54.8011 25.5426 55.1591 25.6591 55.5682 25.6591C55.9148 25.6591 56.2216 25.5795 56.4886 25.4205C56.7557 25.2557 56.9716 25.017 57.1364 24.7045C57.3068 24.3864 57.4091 24 57.4432 23.5455H61.8068C61.7898 24.6989 61.5256 25.7045 61.0142 26.5625C60.5028 27.4148 59.7784 28.0739 58.8409 28.5398C57.9091 29.0057 56.7955 29.2386 55.5 29.2386ZM69.5747 29.2386C68.1542 29.2386 66.9383 28.9574 65.927 28.3949C64.9156 27.8267 64.14 27.0369 63.6003 26.0256C63.0605 25.0085 62.7906 23.8295 62.7906 22.4886C62.7906 21.1477 63.0605 19.9716 63.6003 18.9602C64.14 17.9432 64.9156 17.1534 65.927 16.5909C66.9383 16.0227 68.1542 15.7386 69.5747 15.7386C70.9951 15.7386 72.2111 16.0227 73.2224 16.5909C74.2338 17.1534 75.0093 17.9432 75.5491 18.9602C76.0889 19.9716 76.3588 21.1477 76.3588 22.4886C76.3588 23.8295 76.0889 25.0085 75.5491 26.0256C75.0093 27.0369 74.2338 27.8267 73.2224 28.3949C72.2111 28.9574 70.9951 29.2386 69.5747 29.2386ZM69.6088 25.7614C70.0065 25.7614 70.3503 25.6278 70.64 25.3608C70.9298 25.0937 71.1542 24.7131 71.3133 24.2188C71.4724 23.7244 71.552 23.1364 71.552 22.4545C71.552 21.767 71.4724 21.179 71.3133 20.6903C71.1542 20.196 70.9298 19.8153 70.64 19.5483C70.3503 19.2812 70.0065 19.1477 69.6088 19.1477C69.1883 19.1477 68.8275 19.2812 68.5264 19.5483C68.2253 19.8153 67.9951 20.196 67.8361 20.6903C67.677 21.179 67.5974 21.767 67.5974 22.4545C67.5974 23.1364 67.677 23.7244 67.8361 24.2188C67.9951 24.7131 68.2253 25.0937 68.5264 25.3608C68.8275 25.6278 69.1883 25.7614 69.6088 25.7614ZM82.5265 29.1705C81.5947 29.1705 80.7367 28.9261 79.9526 28.4375C79.1742 27.9489 78.5492 27.2074 78.0776 26.2131C77.6117 25.2187 77.3788 23.9659 77.3788 22.4545C77.3788 20.875 77.6231 19.5909 78.1117 18.6023C78.6061 17.6136 79.2424 16.8892 80.0208 16.429C80.8049 15.9688 81.6288 15.7386 82.4924 15.7386C83.1401 15.7386 83.7083 15.8523 84.197 16.0795C84.6856 16.3011 85.0947 16.5994 85.4242 16.9744C85.7538 17.3437 86.0038 17.75 86.1742 18.1932H86.2424V11.5455H90.947V29H86.2765V26.8523H86.1742C85.9924 27.2955 85.7311 27.6932 85.3901 28.0455C85.0549 28.392 84.6458 28.6676 84.1629 28.8722C83.6856 29.071 83.1401 29.1705 82.5265 29.1705ZM84.2651 25.5568C84.697 25.5568 85.0663 25.4318 85.3731 25.1818C85.6856 24.9261 85.9242 24.5682 86.089 24.108C86.2595 23.642 86.3447 23.0909 86.3447 22.4545C86.3447 21.8068 86.2595 21.2528 86.089 20.7926C85.9242 20.3267 85.6856 19.9716 85.3731 19.7273C85.0663 19.4773 84.697 19.3523 84.2651 19.3523C83.8333 19.3523 83.464 19.4773 83.1572 19.7273C82.8561 19.9716 82.6231 20.3267 82.4583 20.7926C82.2992 21.2528 82.2197 21.8068 82.2197 22.4545C82.2197 23.1023 82.2992 23.6591 82.4583 24.125C82.6231 24.5852 82.8561 24.9403 83.1572 25.1903C83.464 25.4347 83.8333 25.5568 84.2651 25.5568ZM99.0493 29.2386C97.6516 29.2386 96.4471 28.9716 95.4357 28.4375C94.43 27.8977 93.6545 27.125 93.109 26.1193C92.5692 25.108 92.2993 23.8977 92.2993 22.4886C92.2993 21.1364 92.5721 19.9545 93.1175 18.9432C93.663 17.9318 94.4329 17.1449 95.4272 16.5824C96.4215 16.0199 97.5948 15.7386 98.9471 15.7386C99.9357 15.7386 100.831 15.892 101.632 16.1989C102.433 16.5057 103.118 16.9517 103.686 17.5369C104.254 18.1165 104.691 18.821 104.998 19.6506C105.305 20.4801 105.458 21.4148 105.458 22.4545V23.5455H93.7653V20.9545H101.129C101.123 20.5795 101.027 20.25 100.839 19.9659C100.657 19.6761 100.41 19.4517 100.098 19.2926C99.7908 19.1278 99.4414 19.0455 99.0493 19.0455C98.6687 19.0455 98.3192 19.1278 98.0011 19.2926C97.6829 19.4517 97.4272 19.6733 97.234 19.9574C97.0465 20.2415 96.9471 20.5739 96.9357 20.9545V23.75C96.9357 24.1705 97.0238 24.5455 97.1999 24.875C97.3761 25.2045 97.6289 25.4631 97.9584 25.6506C98.288 25.8381 98.6857 25.9318 99.1516 25.9318C99.4755 25.9318 99.7709 25.8864 100.038 25.7955C100.311 25.7045 100.544 25.5739 100.737 25.4034C100.93 25.2273 101.072 25.017 101.163 24.7727H105.458C105.311 25.6818 104.961 26.4716 104.41 27.142C103.859 27.8068 103.129 28.3239 102.22 28.6932C101.316 29.0568 100.26 29.2386 99.0493 29.2386ZM106.898 33.9091V15.9091H111.569V18.1932H111.671C111.841 17.75 112.091 17.3437 112.421 16.9744C112.75 16.5994 113.16 16.3011 113.648 16.0795C114.137 15.8523 114.705 15.7386 115.353 15.7386C116.216 15.7386 117.037 15.9688 117.816 16.429C118.6 16.8892 119.236 17.6136 119.725 18.6023C120.219 19.5909 120.466 20.875 120.466 22.4545C120.466 23.9659 120.231 25.2187 119.759 26.2131C119.293 27.2074 118.668 27.9489 117.884 28.4375C117.106 28.9261 116.25 29.1705 115.319 29.1705C114.705 29.1705 114.157 29.071 113.674 28.8722C113.196 28.6676 112.787 28.392 112.446 28.0455C112.111 27.6932 111.853 27.2955 111.671 26.8523H111.603V33.9091H106.898ZM111.5 22.4545C111.5 23.0909 111.583 23.642 111.748 24.108C111.918 24.5682 112.157 24.9261 112.464 25.1818C112.776 25.4318 113.148 25.5568 113.58 25.5568C114.012 25.5568 114.378 25.4347 114.679 25.1903C114.986 24.9403 115.219 24.5852 115.378 24.125C115.543 23.6591 115.625 23.1023 115.625 22.4545C115.625 21.8068 115.543 21.2528 115.378 20.7926C115.219 20.3267 114.986 19.9716 114.679 19.7273C114.378 19.4773 114.012 19.3523 113.58 19.3523C113.148 19.3523 112.776 19.4773 112.464 19.7273C112.157 19.9716 111.918 20.3267 111.748 20.7926C111.583 21.2528 111.5 21.8068 111.5 22.4545ZM128.23 29.2386C126.832 29.2386 125.628 28.9716 124.616 28.4375C123.611 27.8977 122.835 27.125 122.29 26.1193C121.75 25.108 121.48 23.8977 121.48 22.4886C121.48 21.1364 121.753 19.9545 122.298 18.9432C122.844 17.9318 123.613 17.1449 124.608 16.5824C125.602 16.0199 126.775 15.7386 128.128 15.7386C129.116 15.7386 130.011 15.892 130.812 16.1989C131.613 16.5057 132.298 16.9517 132.866 17.5369C133.435 18.1165 133.872 18.821 134.179 19.6506C134.486 20.4801 134.639 21.4148 134.639 22.4545V23.5455H122.946V20.9545H130.31C130.304 20.5795 130.207 20.25 130.02 19.9659C129.838 19.6761 129.591 19.4517 129.278 19.2926C128.971 19.1278 128.622 19.0455 128.23 19.0455C127.849 19.0455 127.5 19.1278 127.182 19.2926C126.863 19.4517 126.608 19.6733 126.415 19.9574C126.227 20.2415 126.128 20.5739 126.116 20.9545V23.75C126.116 24.1705 126.204 24.5455 126.381 24.875C126.557 25.2045 126.81 25.4631 127.139 25.6506C127.469 25.8381 127.866 25.9318 128.332 25.9318C128.656 25.9318 128.952 25.8864 129.219 25.7955C129.491 25.7045 129.724 25.5739 129.917 25.4034C130.111 25.2273 130.253 25.017 130.344 24.7727H134.639C134.491 25.6818 134.142 26.4716 133.591 27.142C133.04 27.8068 132.31 28.3239 131.4 28.6932C130.497 29.0568 129.44 29.2386 128.23 29.2386ZM143.886 15.9091V19.3182H135.261V15.9091H143.886ZM136.931 12.7727H141.636V24.7898C141.636 24.9716 141.667 25.125 141.729 25.25C141.792 25.3693 141.888 25.4602 142.019 25.5227C142.15 25.5795 142.317 25.608 142.522 25.608C142.664 25.608 142.829 25.5909 143.016 25.5568C143.209 25.5227 143.352 25.4943 143.442 25.4716L144.124 28.7784C143.914 28.8409 143.613 28.9176 143.221 29.0085C142.834 29.0994 142.374 29.1591 141.84 29.1875C140.761 29.2443 139.854 29.1335 139.121 28.8551C138.388 28.571 137.837 28.125 137.468 27.517C137.099 26.9091 136.92 26.1477 136.931 25.233V12.7727Z" fill="#1C1C1E"/>
</g>
<defs>
<clipPath id="clip0_44_7406">
<path d="M0 20C0 8.95431 8.95431 0 20 0H125C136.046 0 145 8.95431 145 20C145 31.0457 136.046 40 125 40H20C8.95431 40 0 31.0457 0 20Z" fill="white"/>
</clipPath>
</defs>
</svg>
