<svg width="196" height="50" viewBox="0 0 196 50" fill="none" xmlns="http://www.w3.org/2000/svg">
<g clip-path="url(#clip0_297_4135)">
<path d="M0.5 25C0.5 11.1929 11.6929 0 25.5 0C39.3071 0 50.5 11.1929 50.5 25C50.5 38.8071 39.3071 50 25.5 50C11.6929 50 0.5 38.8071 0.5 25Z" fill="#8CAAFF"/>
<path fill-rule="evenodd" clip-rule="evenodd" d="M36.097 5.66377C36.0361 5.2349 35.621 4.94651 35.1541 5.00834C33.0296 5.28961 29.4507 6.53994 26.997 9.50766C25.1114 11.7882 24.4706 14.3809 24.3567 16.3988C23.9284 15.6838 23.3691 14.9975 22.6487 14.3955C20.1943 12.3443 16.8507 12.0892 14.7922 12.2667C14.3207 12.3073 13.963 12.6669 13.9627 13.101C13.9613 14.9948 14.5529 18.0166 17.0072 20.0677C19.357 22.0315 22.516 22.3548 24.5 22.1526V26.5249H16.5C14.8431 26.5249 13.5 27.868 13.5 29.5249C13.5 30.9051 14.4321 32.0677 15.7012 32.4174L17.6021 40.8451C18.1083 43.0891 18.3614 44.2111 19.183 44.868C20.0045 45.5249 21.1547 45.5249 23.4551 45.5249H27.5446C29.845 45.5249 30.9952 45.5249 31.8167 44.868C32.6383 44.2111 32.8914 43.0891 33.3975 40.8451L35.2985 32.4175C36.5677 32.0679 37.5 30.9053 37.5 29.5249C37.5 27.868 36.1569 26.5249 34.5 26.5249H26.5V18.4299C28.6732 17.8421 31.5121 16.5576 33.567 14.0722C36.0206 11.1047 36.374 7.61358 36.097 5.66377ZM34.0938 7.18656C32.3981 7.67117 30.2225 8.73419 28.6395 10.6488C27.078 12.5373 26.53 14.7269 26.4325 16.4526C28.2147 15.8985 30.3623 14.8205 31.9245 12.9311C33.5083 11.0155 34.0404 8.81111 34.0938 7.18656ZM16.5 28.5249C15.9477 28.5249 15.5 28.9726 15.5 29.5249C15.5 30.0772 15.9477 30.5249 16.5 30.5249H34.5C35.0523 30.5249 35.5 30.0772 35.5 29.5249C35.5 28.9726 35.0523 28.5249 34.5 28.5249H16.5ZM21.2383 15.8135C22.738 17.0669 23.351 18.8768 23.4849 20.2939C21.9374 20.2998 19.9186 19.9041 18.4175 18.6496C16.9405 17.4152 16.3067 15.6365 16.1145 14.1341C17.7684 14.1686 19.7624 14.5801 21.2383 15.8135Z" fill="#1C1C1E"/>
<path d="M76.5 36.8182C74.6061 36.8182 72.9848 36.4432 71.6364 35.6932C70.2879 34.9356 69.2538 33.8826 68.5341 32.5341C67.8144 31.178 67.4545 29.6061 67.4545 27.8182C67.4545 26.0303 67.8144 24.4621 68.5341 23.1136C69.2538 21.7576 70.2879 20.7045 71.6364 19.9545C72.9848 19.197 74.6061 18.8182 76.5 18.8182C78.2121 18.8182 79.6932 19.1288 80.9432 19.75C82.2008 20.3636 83.1742 21.2348 83.8636 22.3636C84.553 23.4848 84.9015 24.803 84.9091 26.3182H79.0909C79.0076 25.4015 78.7424 24.7045 78.2955 24.2273C77.8561 23.7424 77.2879 23.5 76.5909 23.5C76.0455 23.5 75.5682 23.6591 75.1591 23.9773C74.75 24.2879 74.4318 24.7614 74.2045 25.3977C73.9773 26.0265 73.8636 26.8182 73.8636 27.7727C73.8636 28.7273 73.9773 29.5227 74.2045 30.1591C74.4318 30.7879 74.75 31.2614 75.1591 31.5795C75.5682 31.8902 76.0455 32.0455 76.5909 32.0455C77.053 32.0455 77.4621 31.9394 77.8182 31.7273C78.1742 31.5076 78.4621 31.1894 78.6818 30.7727C78.9091 30.3485 79.0455 29.8333 79.0909 29.2273H84.9091C84.8864 30.7652 84.5341 32.1061 83.8523 33.25C83.1705 34.3864 82.2045 35.2652 80.9545 35.8864C79.7121 36.5076 78.2273 36.8182 76.5 36.8182ZM95.2663 36.8182C93.3723 36.8182 91.7511 36.4432 90.4026 35.6932C89.0541 34.9356 88.02 33.8826 87.3003 32.5341C86.5806 31.178 86.2208 29.6061 86.2208 27.8182C86.2208 26.0303 86.5806 24.4621 87.3003 23.1136C88.02 21.7576 89.0541 20.7045 90.4026 19.9545C91.7511 19.197 93.3723 18.8182 95.2663 18.8182C97.1602 18.8182 98.7814 19.197 100.13 19.9545C101.478 20.7045 102.512 21.7576 103.232 23.1136C103.952 24.4621 104.312 26.0303 104.312 27.8182C104.312 29.6061 103.952 31.178 103.232 32.5341C102.512 33.8826 101.478 34.9356 100.13 35.6932C98.7814 36.4432 97.1602 36.8182 95.2663 36.8182ZM95.3117 32.1818C95.842 32.1818 96.3003 32.0038 96.6867 31.6477C97.0731 31.2917 97.3723 30.7841 97.5844 30.125C97.7966 29.4659 97.9026 28.6818 97.9026 27.7727C97.9026 26.8561 97.7966 26.072 97.5844 25.4205C97.3723 24.7614 97.0731 24.2538 96.6867 23.8977C96.3003 23.5417 95.842 23.3636 95.3117 23.3636C94.7511 23.3636 94.27 23.5417 93.8685 23.8977C93.467 24.2538 93.1602 24.7614 92.9481 25.4205C92.7359 26.072 92.6299 26.8561 92.6299 27.7727C92.6299 28.6818 92.7359 29.4659 92.9481 30.125C93.1602 30.7841 93.467 31.2917 93.8685 31.6477C94.27 32.0038 94.7511 32.1818 95.3117 32.1818ZM112.535 36.7273C111.293 36.7273 110.149 36.4015 109.104 35.75C108.066 35.0985 107.232 34.1098 106.604 32.7841C105.982 31.4583 105.672 29.7879 105.672 27.7727C105.672 25.6667 105.997 23.9545 106.649 22.6364C107.308 21.3182 108.157 20.3523 109.194 19.7386C110.24 19.125 111.338 18.8182 112.49 18.8182C113.354 18.8182 114.111 18.9697 114.763 19.2727C115.414 19.5682 115.96 19.9659 116.399 20.4659C116.838 20.9583 117.172 21.5 117.399 22.0909H117.49V13.2273H123.763V36.5H117.535V33.6364H117.399C117.157 34.2273 116.808 34.7576 116.354 35.2273C115.907 35.6894 115.361 36.0568 114.717 36.3295C114.081 36.5947 113.354 36.7273 112.535 36.7273ZM114.854 31.9091C115.429 31.9091 115.922 31.7424 116.331 31.4091C116.747 31.0682 117.066 30.5909 117.285 29.9773C117.513 29.3561 117.626 28.6212 117.626 27.7727C117.626 26.9091 117.513 26.1705 117.285 25.5568C117.066 24.9356 116.747 24.4621 116.331 24.1364C115.922 23.803 115.429 23.6364 114.854 23.6364C114.278 23.6364 113.785 23.803 113.376 24.1364C112.975 24.4621 112.664 24.9356 112.444 25.5568C112.232 26.1705 112.126 26.9091 112.126 27.7727C112.126 28.6364 112.232 29.3788 112.444 30C112.664 30.6136 112.975 31.0871 113.376 31.4205C113.785 31.7462 114.278 31.9091 114.854 31.9091ZM134.566 36.8182C132.702 36.8182 131.096 36.4621 129.748 35.75C128.407 35.0303 127.373 34 126.645 32.6591C125.926 31.3106 125.566 29.697 125.566 27.8182C125.566 26.0152 125.929 24.4394 126.657 23.0909C127.384 21.7424 128.41 20.6932 129.736 19.9432C131.062 19.1932 132.626 18.8182 134.429 18.8182C135.748 18.8182 136.941 19.0227 138.009 19.4318C139.077 19.8409 139.99 20.4356 140.748 21.2159C141.505 21.9886 142.089 22.928 142.498 24.0341C142.907 25.1402 143.111 26.3864 143.111 27.7727V29.2273H127.52V25.7727H137.339C137.331 25.2727 137.202 24.8333 136.952 24.4545C136.71 24.0682 136.38 23.7689 135.964 23.5568C135.554 23.3371 135.089 23.2273 134.566 23.2273C134.058 23.2273 133.592 23.3371 133.168 23.5568C132.744 23.7689 132.403 24.0644 132.145 24.4432C131.895 24.822 131.763 25.2652 131.748 25.7727V29.5C131.748 30.0606 131.865 30.5606 132.1 31C132.335 31.4394 132.672 31.7841 133.111 32.0341C133.551 32.2841 134.081 32.4091 134.702 32.4091C135.134 32.4091 135.528 32.3485 135.884 32.2273C136.248 32.1061 136.558 31.9318 136.816 31.7045C137.073 31.4697 137.263 31.1894 137.384 30.8636H143.111C142.914 32.0758 142.448 33.1288 141.714 34.0227C140.979 34.9091 140.005 35.5985 138.793 36.0909C137.589 36.5758 136.179 36.8182 134.566 36.8182ZM145.031 43.0455V19.0455H151.258V22.0909H151.395C151.622 21.5 151.955 20.9583 152.395 20.4659C152.834 19.9659 153.379 19.5682 154.031 19.2727C154.682 18.9697 155.44 18.8182 156.304 18.8182C157.455 18.8182 158.55 19.125 159.588 19.7386C160.633 20.3523 161.482 21.3182 162.133 22.6364C162.792 23.9545 163.122 25.6667 163.122 27.7727C163.122 29.7879 162.807 31.4583 162.179 32.7841C161.557 34.1098 160.724 35.0985 159.679 35.75C158.641 36.4015 157.501 36.7273 156.258 36.7273C155.44 36.7273 154.709 36.5947 154.065 36.3295C153.429 36.0568 152.883 35.6894 152.429 35.2273C151.982 34.7576 151.637 34.2273 151.395 33.6364H151.304V43.0455H145.031ZM151.167 27.7727C151.167 28.6212 151.277 29.3561 151.497 29.9773C151.724 30.5909 152.042 31.0682 152.451 31.4091C152.868 31.7424 153.364 31.9091 153.94 31.9091C154.516 31.9091 155.004 31.7462 155.406 31.4205C155.815 31.0871 156.126 30.6136 156.338 30C156.557 29.3788 156.667 28.6364 156.667 27.7727C156.667 26.9091 156.557 26.1705 156.338 25.5568C156.126 24.9356 155.815 24.4621 155.406 24.1364C155.004 23.803 154.516 23.6364 153.94 23.6364C153.364 23.6364 152.868 23.803 152.451 24.1364C152.042 24.4621 151.724 24.9356 151.497 25.5568C151.277 26.1705 151.167 26.9091 151.167 27.7727ZM173.473 36.8182C171.61 36.8182 170.004 36.4621 168.655 35.75C167.314 35.0303 166.28 34 165.553 32.6591C164.833 31.3106 164.473 29.697 164.473 27.8182C164.473 26.0152 164.837 24.4394 165.564 23.0909C166.291 21.7424 167.318 20.6932 168.644 19.9432C169.97 19.1932 171.534 18.8182 173.337 18.8182C174.655 18.8182 175.848 19.0227 176.916 19.4318C177.985 19.8409 178.898 20.4356 179.655 21.2159C180.413 21.9886 180.996 22.928 181.405 24.0341C181.814 25.1402 182.019 26.3864 182.019 27.7727V29.2273H166.428V25.7727H176.246C176.238 25.2727 176.11 24.8333 175.86 24.4545C175.617 24.0682 175.288 23.7689 174.871 23.5568C174.462 23.3371 173.996 23.2273 173.473 23.2273C172.966 23.2273 172.5 23.3371 172.076 23.5568C171.651 23.7689 171.31 24.0644 171.053 24.4432C170.803 24.822 170.67 25.2652 170.655 25.7727V29.5C170.655 30.0606 170.773 30.5606 171.007 31C171.242 31.4394 171.579 31.7841 172.019 32.0341C172.458 32.2841 172.988 32.4091 173.61 32.4091C174.041 32.4091 174.435 32.3485 174.791 32.2273C175.155 32.1061 175.466 31.9318 175.723 31.7045C175.981 31.4697 176.17 31.1894 176.291 30.8636H182.019C181.822 32.0758 181.356 33.1288 180.621 34.0227C179.886 34.9091 178.913 35.5985 177.701 36.0909C176.496 36.5758 175.087 36.8182 173.473 36.8182ZM194.348 19.0455V23.5909H182.848V19.0455H194.348ZM185.075 14.8636H191.348V30.8864C191.348 31.1288 191.389 31.3333 191.473 31.5C191.556 31.6591 191.685 31.7803 191.859 31.8636C192.033 31.9394 192.257 31.9773 192.529 31.9773C192.719 31.9773 192.938 31.9545 193.188 31.9091C193.446 31.8636 193.635 31.8258 193.757 31.7955L194.666 36.2045C194.385 36.2879 193.984 36.3902 193.461 36.5114C192.946 36.6326 192.332 36.7121 191.62 36.75C190.181 36.8258 188.973 36.678 187.995 36.3068C187.018 35.928 186.283 35.3333 185.791 34.5227C185.298 33.7121 185.06 32.697 185.075 31.4773V14.8636Z" fill="#1C1C1E"/>
</g>
<defs>
<clipPath id="clip0_297_4135">
<path d="M0.5 25C0.5 11.1929 11.6929 0 25.5 0H170.5C184.307 0 195.5 11.1929 195.5 25C195.5 38.8071 184.307 50 170.5 50H25.5C11.6929 50 0.5 38.8071 0.5 25Z" fill="white"/>
</clipPath>
</defs>
</svg>
