<svg width="195.000000" height="50.000000" viewBox="0 0 195 50" fill="none" xmlns="http://www.w3.org/2000/svg" xmlns:xlink="http://www.w3.org/1999/xlink">
	<desc>
			Created with Pixso.
	</desc>
	<defs>
		<clipPath id="clip297_4137">
			<rect id="Property 1=Variant2" rx="25.000000" width="195.000000" height="50.000000" fill="white" fill-opacity="0"/>
		</clipPath>
	</defs>
	<g clip-path="url(#clip297_4137)">
		<path id="Union" d="M35.5972 5.66382C35.5361 5.23486 35.1211 4.94653 34.6541 5.0083C32.5295 5.28955 28.9507 6.54004 26.4971 9.50757C24.6113 11.7881 23.9705 14.3809 23.8567 16.3987C23.4285 15.6838 22.8691 14.9976 22.1487 14.3955C19.6943 12.3442 16.3506 12.0891 14.2922 12.2666C13.8208 12.3074 13.4629 12.667 13.4626 13.1011C13.4612 14.9949 14.053 18.0166 16.5071 20.0676C18.8569 22.0315 22.0161 22.3547 24 22.1526L24 26.5249L16 26.5249C14.3433 26.5249 13 27.8682 13 29.5249C13 30.905 13.9321 32.0676 15.2012 32.4175L17.1021 40.845C17.6084 43.0891 17.8613 44.2112 18.6829 44.8679C19.5046 45.5249 20.6548 45.5249 22.9551 45.5249L27.0447 45.5249C29.345 45.5249 30.4951 45.5249 31.3167 44.8679C32.1382 44.2112 32.3914 43.0891 32.8975 40.845L34.7986 32.4175C36.0676 32.0679 37 30.9053 37 29.5249C37 27.8682 35.6567 26.5249 34 26.5249L26 26.5249L26 18.4299C28.1733 17.842 31.012 16.5576 33.0669 14.0723C35.5205 11.1047 35.874 7.61353 35.5972 5.66382ZM33.5938 7.18652C31.8982 7.67114 29.7224 8.73413 28.1394 10.6487C26.5781 12.5374 26.03 14.7268 25.9326 16.4526C27.7146 15.8984 29.8623 14.8206 31.4246 12.9312C33.0083 11.0156 33.5403 8.81104 33.5938 7.18652ZM16 28.5249C15.4478 28.5249 15 28.9727 15 29.5249C15 30.0771 15.4478 30.5249 16 30.5249L34 30.5249C34.5522 30.5249 35 30.0771 35 29.5249C35 28.9727 34.5522 28.5249 34 28.5249L16 28.5249ZM20.7383 15.8135C22.238 17.0669 22.8511 18.877 22.9849 20.2939C21.4375 20.2998 19.4185 19.9041 17.9175 18.6497C16.4404 17.4153 15.8066 15.6365 15.6145 14.134C17.2683 14.1687 19.2625 14.5801 20.7383 15.8135Z" fill="#000000" fill-opacity="1.000000" fill-rule="evenodd"/>
		<path id="codepet" d="M76 36.8203C81.1719 36.8203 84.3438 33.8516 84.4062 29.2266L78.5938 29.2266C78.4531 31.0547 77.4688 32.0469 76.0938 32.0469C74.4453 32.0469 73.3672 30.6328 73.3672 27.7734C73.3672 24.9062 74.4453 23.5 76.0938 23.5C77.4766 23.5 78.4219 24.4922 78.5938 26.3203L84.4062 26.3203C84.375 21.7734 81.1328 18.8203 76 18.8203C70.3203 18.8203 66.9531 22.4531 66.9531 27.8203C66.9531 33.1797 70.3203 36.8203 76 36.8203ZM94.7691 36.8203C100.449 36.8203 103.816 33.1797 103.816 27.8203C103.816 22.4531 100.449 18.8203 94.7691 18.8203C89.0894 18.8203 85.7222 22.4531 85.7222 27.8203C85.7222 33.1797 89.0894 36.8203 94.7691 36.8203ZM94.816 32.1797C93.1363 32.1797 92.1363 30.5078 92.1363 27.7734C92.1363 25.0312 93.1363 23.3672 94.816 23.3672C96.4019 23.3672 97.4019 25.0312 97.4019 27.7734C97.4019 30.5078 96.4019 32.1797 94.816 32.1797ZM112.035 36.7266C114.496 36.7266 116.176 35.4062 116.903 33.6328L117.035 33.6328L117.035 36.5L123.262 36.5L123.262 13.2266L116.996 13.2266L116.996 22.0938L116.903 22.0938C116.223 20.3203 114.582 18.8203 111.996 18.8203C108.535 18.8203 105.176 21.4531 105.176 27.7734C105.176 33.8203 108.309 36.7266 112.035 36.7266ZM114.356 31.9062C112.629 31.9062 111.629 30.3672 111.629 27.7734C111.629 25.1797 112.629 23.6328 114.356 23.6328C116.082 23.6328 117.129 25.1797 117.129 27.7734C117.129 30.3203 116.082 31.9062 114.356 31.9062ZM134.079 36.8203C138.922 36.8203 142.032 34.5 142.625 30.8672L136.899 30.8672C136.532 31.8516 135.5 32.4062 134.219 32.4062C132.352 32.4062 131.258 31.1797 131.258 29.5L131.258 29.2266L142.625 29.2266L142.625 27.7734C142.625 22.2188 139.219 18.8203 133.946 18.8203C128.532 18.8203 125.079 22.4062 125.079 27.8203C125.079 33.4688 128.493 36.8203 134.079 36.8203ZM131.258 25.7734C131.297 24.2578 132.547 23.2266 134.079 23.2266C135.633 23.2266 136.821 24.2734 136.852 25.7734L131.258 25.7734ZM144.534 43.0469L150.807 43.0469L150.807 33.6328L150.893 33.6328C151.62 35.4062 153.307 36.7266 155.76 36.7266C159.487 36.7266 162.62 33.8203 162.62 27.7734C162.62 21.4531 159.26 18.8203 155.807 18.8203C153.213 18.8203 151.573 20.3203 150.893 22.0938L150.76 22.0938L150.76 19.0469L144.534 19.0469L144.534 43.0469ZM150.667 27.7734C150.667 25.1797 151.713 23.6328 153.44 23.6328C155.167 23.6328 156.167 25.1797 156.167 27.7734C156.167 30.3672 155.167 31.9062 153.44 31.9062C151.713 31.9062 150.667 30.3203 150.667 27.7734ZM172.98 36.8203C177.824 36.8203 180.934 34.5 181.527 30.8672L175.801 30.8672C175.434 31.8516 174.402 32.4062 173.121 32.4062C171.254 32.4062 170.16 31.1797 170.16 29.5L170.16 29.2266L181.527 29.2266L181.527 27.7734C181.527 22.2188 178.121 18.8203 172.848 18.8203C167.434 18.8203 163.98 22.4062 163.98 27.8203C163.98 33.4688 167.394 36.8203 172.98 36.8203ZM170.16 25.7734C170.199 24.2578 171.449 23.2266 172.98 23.2266C174.535 23.2266 175.723 24.2734 175.754 25.7734L170.16 25.7734ZM193.842 19.0469L190.842 19.0469L190.842 14.8672L184.568 14.8672L184.568 19.0469L182.342 19.0469L182.342 23.5938L184.568 23.5938L184.568 31.4766C184.522 35.1328 186.787 36.9922 191.115 36.75C192.537 36.6719 193.592 36.375 194.162 36.2031L193.248 31.7969C193.014 31.8516 192.397 31.9766 192.022 31.9766C191.209 31.9766 190.842 31.6172 190.842 30.8828L190.842 23.5938L193.842 23.5938L193.842 19.0469Z" fill="#1C1C1E" fill-opacity="1.000000" fill-rule="evenodd"/>
	</g>
</svg>
