<svg width="195.000000" height="50.000000" viewBox="0 0 195 50" fill="none" xmlns="http://www.w3.org/2000/svg" xmlns:xlink="http://www.w3.org/1999/xlink">
	<desc>
			Created with Pixso.
	</desc>
	<defs>
		<clipPath id="clip465_9361">
			<rect id="logo" rx="25.000000" width="195.000000" height="50.000000" fill="white" fill-opacity="0"/>
		</clipPath>
	</defs>
	<g clip-path="url(#clip465_9361)">
		<path id="Exclude" d="M25 0C11.1929 0 0 11.1934 0 25C0 38.8066 11.1929 50 25 50C38.8071 50 50 38.8066 50 25C50 11.1934 38.8071 0 25 0ZM34.6541 5.00879C35.1211 4.94629 35.5361 5.23535 35.5972 5.66406C35.874 7.61328 35.5205 11.1045 33.0669 14.0723C31.012 16.5576 28.1733 17.8418 26 18.4297L26 26.5254L34 26.5254C35.6567 26.5254 37 27.8682 37 29.5254C37 30.9053 36.0676 32.0684 34.7986 32.417L32.8975 40.8447C32.3914 43.0889 32.1382 44.2109 31.3167 44.8682C30.4951 45.5244 29.345 45.5244 27.0447 45.5244L22.9551 45.5244C20.6548 45.5244 19.5046 45.5244 18.6829 44.8682C17.8613 44.2109 17.6084 43.0889 17.1021 40.8447L15.2012 32.417C13.9321 32.0674 13 30.9053 13 29.5254C13 27.8682 14.3433 26.5254 16 26.5254L24 26.5254L24 22.1523C22.0161 22.3545 18.8569 22.0312 16.5071 20.0674C14.053 18.0166 13.4612 14.9951 13.4626 13.1006C13.4629 12.667 13.8208 12.3076 14.2922 12.2666C16.3506 12.0889 19.6943 12.3447 22.1487 14.3955C22.8691 14.9971 23.4285 15.6836 23.8567 16.3984C23.9707 14.3809 24.6113 11.7881 26.4971 9.50781C28.9507 6.54004 32.5295 5.29004 34.6541 5.00879ZM28.1394 10.6484C29.7224 8.73438 31.8982 7.6709 33.5938 7.18652C33.5403 8.81152 33.0083 11.0156 31.4246 12.9307C29.8623 14.8203 27.7146 15.8984 25.9326 16.4521C26.03 14.7266 26.5781 12.5371 28.1394 10.6484ZM22.9849 20.2939C22.8511 18.877 22.238 17.0674 20.7383 15.8135C19.2625 14.5801 17.2683 14.1689 15.6145 14.1338C15.8066 15.6367 16.4404 17.415 17.9175 18.6494C19.4185 19.9043 21.4375 20.2998 22.9849 20.2939ZM15 29.5254C15 28.9727 15.4478 28.5254 16 28.5254L34 28.5254C34.5522 28.5254 35 28.9727 35 29.5254C35 30.0771 34.5522 30.5254 34 30.5254L16 30.5254C15.4478 30.5254 15 30.0771 15 29.5254Z" clip-rule="evenodd" fill="#1C1C1E" fill-opacity="1.000000" fill-rule="evenodd"/>
		<path id="codepet" d="M76 36.8203C81.1719 36.8203 84.3438 33.8516 84.4062 29.2266L78.5938 29.2266C78.4531 31.0547 77.4688 32.0469 76.0938 32.0469C74.4453 32.0469 73.3672 30.6328 73.3672 27.7734C73.3672 24.9062 74.4453 23.5 76.0938 23.5C77.4766 23.5 78.4219 24.4922 78.5938 26.3203L84.4062 26.3203C84.375 21.7734 81.1328 18.8203 76 18.8203C70.3203 18.8203 66.9531 22.4531 66.9531 27.8203C66.9531 33.1797 70.3203 36.8203 76 36.8203ZM94.7691 36.8203C100.449 36.8203 103.816 33.1797 103.816 27.8203C103.816 22.4531 100.449 18.8203 94.7691 18.8203C89.0894 18.8203 85.7222 22.4531 85.7222 27.8203C85.7222 33.1797 89.0894 36.8203 94.7691 36.8203ZM94.816 32.1797C93.1363 32.1797 92.1363 30.5078 92.1363 27.7734C92.1363 25.0312 93.1363 23.3672 94.816 23.3672C96.4019 23.3672 97.4019 25.0312 97.4019 27.7734C97.4019 30.5078 96.4019 32.1797 94.816 32.1797ZM112.035 36.7266C114.496 36.7266 116.176 35.4062 116.903 33.6328L117.035 33.6328L117.035 36.5L123.262 36.5L123.262 13.2266L116.996 13.2266L116.996 22.0938L116.903 22.0938C116.223 20.3203 114.582 18.8203 111.996 18.8203C108.535 18.8203 105.176 21.4531 105.176 27.7734C105.176 33.8203 108.309 36.7266 112.035 36.7266ZM114.356 31.9062C112.629 31.9062 111.629 30.3672 111.629 27.7734C111.629 25.1797 112.629 23.6328 114.356 23.6328C116.082 23.6328 117.129 25.1797 117.129 27.7734C117.129 30.3203 116.082 31.9062 114.356 31.9062ZM134.079 36.8203C138.922 36.8203 142.032 34.5 142.625 30.8672L136.899 30.8672C136.532 31.8516 135.5 32.4062 134.219 32.4062C132.352 32.4062 131.258 31.1797 131.258 29.5L131.258 29.2266L142.625 29.2266L142.625 27.7734C142.625 22.2188 139.219 18.8203 133.946 18.8203C128.532 18.8203 125.079 22.4062 125.079 27.8203C125.079 33.4688 128.493 36.8203 134.079 36.8203ZM131.258 25.7734C131.297 24.2578 132.547 23.2266 134.079 23.2266C135.633 23.2266 136.821 24.2734 136.852 25.7734L131.258 25.7734ZM144.534 43.0469L150.807 43.0469L150.807 33.6328L150.893 33.6328C151.62 35.4062 153.307 36.7266 155.76 36.7266C159.487 36.7266 162.62 33.8203 162.62 27.7734C162.62 21.4531 159.26 18.8203 155.807 18.8203C153.213 18.8203 151.573 20.3203 150.893 22.0938L150.76 22.0938L150.76 19.0469L144.534 19.0469L144.534 43.0469ZM150.667 27.7734C150.667 25.1797 151.713 23.6328 153.44 23.6328C155.167 23.6328 156.167 25.1797 156.167 27.7734C156.167 30.3672 155.167 31.9062 153.44 31.9062C151.713 31.9062 150.667 30.3203 150.667 27.7734ZM172.98 36.8203C177.824 36.8203 180.934 34.5 181.527 30.8672L175.801 30.8672C175.434 31.8516 174.402 32.4062 173.121 32.4062C171.254 32.4062 170.16 31.1797 170.16 29.5L170.16 29.2266L181.527 29.2266L181.527 27.7734C181.527 22.2188 178.121 18.8203 172.848 18.8203C167.434 18.8203 163.98 22.4062 163.98 27.8203C163.98 33.4688 167.394 36.8203 172.98 36.8203ZM170.16 25.7734C170.199 24.2578 171.449 23.2266 172.98 23.2266C174.535 23.2266 175.723 24.2734 175.754 25.7734L170.16 25.7734ZM193.842 19.0469L190.842 19.0469L190.842 14.8672L184.568 14.8672L184.568 19.0469L182.342 19.0469L182.342 23.5938L184.568 23.5938L184.568 31.4766C184.522 35.1328 186.787 36.9922 191.115 36.75C192.537 36.6719 193.592 36.375 194.162 36.2031L193.248 31.7969C193.014 31.8516 192.397 31.9766 192.022 31.9766C191.209 31.9766 190.842 31.6172 190.842 30.8828L190.842 23.5938L193.842 23.5938L193.842 19.0469Z" fill="#1C1C1E" fill-opacity="1.000000" fill-rule="evenodd"/>
	</g>
</svg>
