<svg viewBox="0 0 195 50" fill="none" xmlns="http://www.w3.org/2000/svg">
<g clip-path="url(#clip0_464_8068)">
<path d="M0 25C0 11.1929 11.1929 0 25 0C38.8071 0 50 11.1929 50 25C50 38.8071 38.8071 50 25 50C11.1929 50 0 38.8071 0 25Z" fill="#8CAAFF"/>
<path fill-rule="evenodd" clip-rule="evenodd" d="M35.597 5.66377C35.5361 5.2349 35.121 4.94651 34.6541 5.00834C32.5296 5.28961 28.9507 6.53994 26.497 9.50766C24.6114 11.7882 23.9706 14.3809 23.8567 16.3988C23.4284 15.6838 22.8691 14.9975 22.1487 14.3955C19.6943 12.3443 16.3507 12.0892 14.2922 12.2667C13.8207 12.3073 13.463 12.6669 13.4627 13.101C13.4613 14.9948 14.0529 18.0166 16.5072 20.0677C18.857 22.0315 22.016 22.3548 24 22.1526V26.5249H16C14.3431 26.5249 13 27.868 13 29.5249C13 30.9051 13.9321 32.0677 15.2012 32.4174L17.1021 40.8451C17.6083 43.0891 17.8614 44.2111 18.683 44.868C19.5045 45.5249 20.6547 45.5249 22.9551 45.5249H27.0446C29.345 45.5249 30.4952 45.5249 31.3167 44.868C32.1383 44.2111 32.3914 43.0891 32.8975 40.8451L34.7985 32.4175C36.0677 32.0679 37 30.9053 37 29.5249C37 27.868 35.6569 26.5249 34 26.5249H26V18.4299C28.1732 17.8421 31.0121 16.5576 33.067 14.0722C35.5206 11.1047 35.874 7.61358 35.597 5.66377ZM33.5938 7.18656C31.8981 7.67117 29.7225 8.73419 28.1395 10.6488C26.578 12.5373 26.03 14.7269 25.9325 16.4526C27.7147 15.8985 29.8623 14.8205 31.4245 12.9311C33.0083 11.0155 33.5404 8.81111 33.5938 7.18656ZM16 28.5249C15.4477 28.5249 15 28.9726 15 29.5249C15 30.0772 15.4477 30.5249 16 30.5249H34C34.5523 30.5249 35 30.0772 35 29.5249C35 28.9726 34.5523 28.5249 34 28.5249H16ZM20.7383 15.8135C22.238 17.0669 22.851 18.8768 22.9849 20.2939C21.4374 20.2998 19.4186 19.9041 17.9175 18.6496C16.4405 17.4152 15.8067 15.6365 15.6145 14.1341C17.2684 14.1686 19.2624 14.5801 20.7383 15.8135Z" fill="#1C1C1E"/>
<path d="M76 36.8182C74.1061 36.8182 72.4848 36.4432 71.1364 35.6932C69.7879 34.9356 68.7538 33.8826 68.0341 32.5341C67.3144 31.178 66.9545 29.6061 66.9545 27.8182C66.9545 26.0303 67.3144 24.4621 68.0341 23.1136C68.7538 21.7576 69.7879 20.7045 71.1364 19.9545C72.4848 19.197 74.1061 18.8182 76 18.8182C77.7121 18.8182 79.1932 19.1288 80.4432 19.75C81.7008 20.3636 82.6742 21.2348 83.3636 22.3636C84.053 23.4848 84.4015 24.803 84.4091 26.3182H78.5909C78.5076 25.4015 78.2424 24.7045 77.7955 24.2273C77.3561 23.7424 76.7879 23.5 76.0909 23.5C75.5455 23.5 75.0682 23.6591 74.6591 23.9773C74.25 24.2879 73.9318 24.7614 73.7045 25.3977C73.4773 26.0265 73.3636 26.8182 73.3636 27.7727C73.3636 28.7273 73.4773 29.5227 73.7045 30.1591C73.9318 30.7879 74.25 31.2614 74.6591 31.5795C75.0682 31.8902 75.5455 32.0455 76.0909 32.0455C76.553 32.0455 76.9621 31.9394 77.3182 31.7273C77.6742 31.5076 77.9621 31.1894 78.1818 30.7727C78.4091 30.3485 78.5455 29.8333 78.5909 29.2273H84.4091C84.3864 30.7652 84.0341 32.1061 83.3523 33.25C82.6705 34.3864 81.7045 35.2652 80.4545 35.8864C79.2121 36.5076 77.7273 36.8182 76 36.8182ZM94.7663 36.8182C92.8723 36.8182 91.2511 36.4432 89.9026 35.6932C88.5541 34.9356 87.52 33.8826 86.8003 32.5341C86.0806 31.178 85.7208 29.6061 85.7208 27.8182C85.7208 26.0303 86.0806 24.4621 86.8003 23.1136C87.52 21.7576 88.5541 20.7045 89.9026 19.9545C91.2511 19.197 92.8723 18.8182 94.7663 18.8182C96.6602 18.8182 98.2814 19.197 99.6299 19.9545C100.978 20.7045 102.012 21.7576 102.732 23.1136C103.452 24.4621 103.812 26.0303 103.812 27.8182C103.812 29.6061 103.452 31.178 102.732 32.5341C102.012 33.8826 100.978 34.9356 99.6299 35.6932C98.2814 36.4432 96.6602 36.8182 94.7663 36.8182ZM94.8117 32.1818C95.342 32.1818 95.8003 32.0038 96.1867 31.6477C96.5731 31.2917 96.8723 30.7841 97.0844 30.125C97.2966 29.4659 97.4026 28.6818 97.4026 27.7727C97.4026 26.8561 97.2966 26.072 97.0844 25.4205C96.8723 24.7614 96.5731 24.2538 96.1867 23.8977C95.8003 23.5417 95.342 23.3636 94.8117 23.3636C94.2511 23.3636 93.77 23.5417 93.3685 23.8977C92.967 24.2538 92.6602 24.7614 92.4481 25.4205C92.2359 26.072 92.1299 26.8561 92.1299 27.7727C92.1299 28.6818 92.2359 29.4659 92.4481 30.125C92.6602 30.7841 92.967 31.2917 93.3685 31.6477C93.77 32.0038 94.2511 32.1818 94.8117 32.1818ZM112.035 36.7273C110.793 36.7273 109.649 36.4015 108.604 35.75C107.566 35.0985 106.732 34.1098 106.104 32.7841C105.482 31.4583 105.172 29.7879 105.172 27.7727C105.172 25.6667 105.497 23.9545 106.149 22.6364C106.808 21.3182 107.657 20.3523 108.694 19.7386C109.74 19.125 110.838 18.8182 111.99 18.8182C112.854 18.8182 113.611 18.9697 114.263 19.2727C114.914 19.5682 115.46 19.9659 115.899 20.4659C116.338 20.9583 116.672 21.5 116.899 22.0909H116.99V13.2273H123.263V36.5H117.035V33.6364H116.899C116.657 34.2273 116.308 34.7576 115.854 35.2273C115.407 35.6894 114.861 36.0568 114.217 36.3295C113.581 36.5947 112.854 36.7273 112.035 36.7273ZM114.354 31.9091C114.929 31.9091 115.422 31.7424 115.831 31.4091C116.247 31.0682 116.566 30.5909 116.785 29.9773C117.013 29.3561 117.126 28.6212 117.126 27.7727C117.126 26.9091 117.013 26.1705 116.785 25.5568C116.566 24.9356 116.247 24.4621 115.831 24.1364C115.422 23.803 114.929 23.6364 114.354 23.6364C113.778 23.6364 113.285 23.803 112.876 24.1364C112.475 24.4621 112.164 24.9356 111.944 25.5568C111.732 26.1705 111.626 26.9091 111.626 27.7727C111.626 28.6364 111.732 29.3788 111.944 30C112.164 30.6136 112.475 31.0871 112.876 31.4205C113.285 31.7462 113.778 31.9091 114.354 31.9091ZM134.066 36.8182C132.202 36.8182 130.596 36.4621 129.248 35.75C127.907 35.0303 126.873 34 126.145 32.6591C125.426 31.3106 125.066 29.697 125.066 27.8182C125.066 26.0152 125.429 24.4394 126.157 23.0909C126.884 21.7424 127.91 20.6932 129.236 19.9432C130.562 19.1932 132.126 18.8182 133.929 18.8182C135.248 18.8182 136.441 19.0227 137.509 19.4318C138.577 19.8409 139.49 20.4356 140.248 21.2159C141.005 21.9886 141.589 22.928 141.998 24.0341C142.407 25.1402 142.611 26.3864 142.611 27.7727V29.2273H127.02V25.7727H136.839C136.831 25.2727 136.702 24.8333 136.452 24.4545C136.21 24.0682 135.88 23.7689 135.464 23.5568C135.054 23.3371 134.589 23.2273 134.066 23.2273C133.558 23.2273 133.092 23.3371 132.668 23.5568C132.244 23.7689 131.903 24.0644 131.645 24.4432C131.395 24.822 131.263 25.2652 131.248 25.7727V29.5C131.248 30.0606 131.365 30.5606 131.6 31C131.835 31.4394 132.172 31.7841 132.611 32.0341C133.051 32.2841 133.581 32.4091 134.202 32.4091C134.634 32.4091 135.028 32.3485 135.384 32.2273C135.748 32.1061 136.058 31.9318 136.316 31.7045C136.573 31.4697 136.763 31.1894 136.884 30.8636H142.611C142.414 32.0758 141.948 33.1288 141.214 34.0227C140.479 34.9091 139.505 35.5985 138.293 36.0909C137.089 36.5758 135.679 36.8182 134.066 36.8182ZM144.531 43.0455V19.0455H150.758V22.0909H150.895C151.122 21.5 151.455 20.9583 151.895 20.4659C152.334 19.9659 152.879 19.5682 153.531 19.2727C154.182 18.9697 154.94 18.8182 155.804 18.8182C156.955 18.8182 158.05 19.125 159.088 19.7386C160.133 20.3523 160.982 21.3182 161.633 22.6364C162.292 23.9545 162.622 25.6667 162.622 27.7727C162.622 29.7879 162.307 31.4583 161.679 32.7841C161.057 34.1098 160.224 35.0985 159.179 35.75C158.141 36.4015 157.001 36.7273 155.758 36.7273C154.94 36.7273 154.209 36.5947 153.565 36.3295C152.929 36.0568 152.383 35.6894 151.929 35.2273C151.482 34.7576 151.137 34.2273 150.895 33.6364H150.804V43.0455H144.531ZM150.667 27.7727C150.667 28.6212 150.777 29.3561 150.997 29.9773C151.224 30.5909 151.542 31.0682 151.951 31.4091C152.368 31.7424 152.864 31.9091 153.44 31.9091C154.016 31.9091 154.504 31.7462 154.906 31.4205C155.315 31.0871 155.626 30.6136 155.838 30C156.057 29.3788 156.167 28.6364 156.167 27.7727C156.167 26.9091 156.057 26.1705 155.838 25.5568C155.626 24.9356 155.315 24.4621 154.906 24.1364C154.504 23.803 154.016 23.6364 153.44 23.6364C152.864 23.6364 152.368 23.803 151.951 24.1364C151.542 24.4621 151.224 24.9356 150.997 25.5568C150.777 26.1705 150.667 26.9091 150.667 27.7727ZM172.973 36.8182C171.11 36.8182 169.504 36.4621 168.155 35.75C166.814 35.0303 165.78 34 165.053 32.6591C164.333 31.3106 163.973 29.697 163.973 27.8182C163.973 26.0152 164.337 24.4394 165.064 23.0909C165.791 21.7424 166.818 20.6932 168.144 19.9432C169.47 19.1932 171.034 18.8182 172.837 18.8182C174.155 18.8182 175.348 19.0227 176.416 19.4318C177.485 19.8409 178.398 20.4356 179.155 21.2159C179.913 21.9886 180.496 22.928 180.905 24.0341C181.314 25.1402 181.519 26.3864 181.519 27.7727V29.2273H165.928V25.7727H175.746C175.738 25.2727 175.61 24.8333 175.36 24.4545C175.117 24.0682 174.788 23.7689 174.371 23.5568C173.962 23.3371 173.496 23.2273 172.973 23.2273C172.466 23.2273 172 23.3371 171.576 23.5568C171.151 23.7689 170.81 24.0644 170.553 24.4432C170.303 24.822 170.17 25.2652 170.155 25.7727V29.5C170.155 30.0606 170.273 30.5606 170.507 31C170.742 31.4394 171.079 31.7841 171.519 32.0341C171.958 32.2841 172.488 32.4091 173.11 32.4091C173.541 32.4091 173.935 32.3485 174.291 32.2273C174.655 32.1061 174.966 31.9318 175.223 31.7045C175.481 31.4697 175.67 31.1894 175.791 30.8636H181.519C181.322 32.0758 180.856 33.1288 180.121 34.0227C179.386 34.9091 178.413 35.5985 177.201 36.0909C175.996 36.5758 174.587 36.8182 172.973 36.8182ZM193.848 19.0455V23.5909H182.348V19.0455H193.848ZM184.575 14.8636H190.848V30.8864C190.848 31.1288 190.889 31.3333 190.973 31.5C191.056 31.6591 191.185 31.7803 191.359 31.8636C191.533 31.9394 191.757 31.9773 192.029 31.9773C192.219 31.9773 192.438 31.9545 192.688 31.9091C192.946 31.8636 193.135 31.8258 193.257 31.7955L194.166 36.2045C193.885 36.2879 193.484 36.3902 192.961 36.5114C192.446 36.6326 191.832 36.7121 191.12 36.75C189.681 36.8258 188.473 36.678 187.495 36.3068C186.518 35.928 185.783 35.3333 185.291 34.5227C184.798 33.7121 184.56 32.697 184.575 31.4773V14.8636Z" fill="#FDFDFD"/>
</g>
<defs>
<clipPath id="clip0_464_8068">
<path d="M0 25C0 11.1929 11.1929 0 25 0H170C183.807 0 195 11.1929 195 25C195 38.8071 183.807 50 170 50H25C11.1929 50 0 38.8071 0 25Z" fill="white"/>
</clipPath>
</defs>
</svg>
